<svg width="256" height="81" viewBox="0 0 256 81" fill="none" xmlns="http://www.w3.org/2000/svg">
<g clip-path="url(#clip0_29_3102)">
<path d="M229.18 21.19L242.16 42.38H229.14L220.97 29.36L212.8 42.38H199.79L212.77 21.19L199.79 0H212.8L220.97 13.02L229.14 0H242.16L229.18 21.19Z" fill="#898C8E"/>
<path d="M60.0799 42.3C48.2799 42.3 38.6699 32.81 38.6699 21.15C38.6699 9.49 48.2699 0 60.0799 0C71.8899 0 81.4899 9.49 81.4899 21.15C81.4899 32.81 71.8899 42.3 60.0799 42.3ZM60.0799 10.64C54.0999 10.64 49.2399 15.36 49.2399 21.16C49.2399 26.96 54.0999 31.68 60.0799 31.68C66.0599 31.68 70.9199 26.96 70.9199 21.16C70.9199 15.36 66.0599 10.64 60.0799 10.64Z" fill="#898C8E"/>
<path d="M251.39 34.78C253.23 34.78 254.73 36.3 254.73 38.17C254.73 40.04 253.23 41.56 251.39 41.56C249.55 41.56 248.05 40.04 248.05 38.17C248.05 36.3 249.55 34.78 251.39 34.78ZM251.39 33.93C249.08 33.93 247.2 35.83 247.2 38.17C247.2 40.51 249.08 42.41 251.39 42.41C253.7 42.41 255.58 40.51 255.58 38.17C255.58 35.83 253.7 33.93 251.39 33.93Z" fill="#898C8E"/>
<path d="M253.25 37.19C253.25 37.53 253.16 37.81 252.97 38.05C252.78 38.28 252.5 38.46 252.11 38.57L253.55 40.57H252.49L251.18 38.7H250.57V40.57H249.69V35.74H251.16C251.4 35.74 251.63 35.75 251.84 35.78C252.05 35.81 252.23 35.85 252.38 35.9C252.66 36.01 252.88 36.17 253.04 36.38C253.19 36.59 253.27 36.86 253.27 37.18L253.25 37.19ZM251 37.96C251.2 37.96 251.37 37.96 251.51 37.93C251.65 37.91 251.77 37.88 251.87 37.85C252.05 37.78 252.17 37.69 252.24 37.57C252.31 37.45 252.34 37.32 252.34 37.17C252.34 37.04 252.31 36.93 252.26 36.83C252.21 36.73 252.11 36.65 251.98 36.59C251.9 36.55 251.79 36.52 251.66 36.51C251.53 36.49 251.37 36.48 251.19 36.48H250.56V37.96H251Z" fill="#898C8E"/>
<path d="M38.43 0.0200195L14.48 23.72H12.07L12.06 42.36H0V0.0200195H12.06V11.46L23.49 0.0200195H38.43Z" fill="#898C8E"/>
<path d="M195.05 0H182.99V42.34H195.05V0Z" fill="#898C8E"/>
<path d="M128.74 0V42.34H116.68V42.36H115.3L97.8 17.74V42.34H85.74V0H99.74L116.68 23.74V0H128.74Z" fill="#898C8E"/>
<path d="M177.16 0V42.34H165.1V42.36H163.72L146.22 17.74V42.34H134.16V0H148.16L165.1 23.74V0H177.16Z" fill="#898C8E"/>
<path d="M27.28 23.74L14.52 23.75L27.74 42.36H40.51L27.28 23.74Z" fill="#898C8E"/>
<path d="M0.91 67.14H0V61.86H3.1C4.6 61.86 5.25 62.51 5.25 63.47C5.25 64.22 4.58 65.19 3.39 65.2L0.9 65.22V67.14H0.91ZM0.91 62.75V64.3H2.97C3.78 64.3 4.21 63.98 4.21 63.48C4.21 63.04 3.88 62.73 3.16 62.73C2.82 62.73 1.16 62.75 0.91 62.75Z" fill="#898C8E"/>
<path d="M10.5901 65.01H8.51011V67.15H7.61011V61.87H10.9101C12.1901 61.87 12.9201 62.48 12.9201 63.41C12.9201 64.21 12.3501 64.78 11.5801 64.89C11.8401 65.84 12.0201 66.39 12.4701 66.39C12.6201 66.39 12.7801 66.34 12.9101 66.28V67.15C12.6001 67.25 12.3401 67.3 12.1101 67.3C11.2301 67.3 11.0701 66.19 10.5901 65.01ZM10.8401 64.22C11.2301 64.22 11.8001 63.94 11.8001 63.44C11.8001 63 11.4601 62.73 10.7501 62.73C10.0901 62.73 9.42011 62.73 8.50011 62.75V64.22H10.8401Z" fill="#898C8E"/>
<path d="M15.0601 64.52C15.0601 62.77 16.1701 61.66 17.8601 61.66C19.5501 61.66 20.6901 62.79 20.6901 64.46C20.6901 66.13 19.5701 67.32 17.8901 67.32C16.2101 67.32 15.0701 66.19 15.0701 64.52H15.0601ZM17.8601 62.53C16.7201 62.53 16.0001 63.25 16.0001 64.44C16.0001 65.63 16.7201 66.46 17.8701 66.46C19.0201 66.46 19.7401 65.74 19.7401 64.55C19.7401 63.36 19.0001 62.53 17.8501 62.53H17.8601Z" fill="#898C8E"/>
<path d="M23.21 61.86H28.01V62.75H24.11V64.04H27.34V64.95H24.11V67.14H23.21V61.86Z" fill="#898C8E"/>
<path d="M35.2 67.14H30.26V61.86H35.05V62.75H31.15V63.97H34.39V64.88H31.15V66.27H35.2V67.14Z" fill="#898C8E"/>
<path d="M42.5699 65.48C42.5699 66.93 41.0999 67.35 39.9299 67.35C39.0399 67.35 37.4799 67.22 37.1799 65.79L37.9699 65.41C38.2999 66.29 39.1399 66.41 39.8299 66.41C40.4499 66.41 41.5799 66.28 41.5799 65.55C41.5799 64.19 37.2099 65.69 37.2099 63.4C37.2099 62.16 38.6699 61.68 39.8399 61.68C41.0099 61.68 42.2699 62.07 42.4399 63.26L41.6899 63.55C41.4699 62.76 40.6099 62.5 39.8199 62.5C39.0799 62.5 38.2499 62.79 38.2499 63.31C38.2499 64.57 42.5499 63.23 42.5499 65.47L42.5699 65.48Z" fill="#898C8E"/>
<path d="M50.0199 65.48C50.0199 66.93 48.5499 67.35 47.3799 67.35C46.4899 67.35 44.9299 67.22 44.6299 65.79L45.4199 65.41C45.7499 66.29 46.5899 66.41 47.2799 66.41C47.8999 66.41 49.0299 66.28 49.0299 65.55C49.0299 64.19 44.6599 65.69 44.6599 63.4C44.6599 62.16 46.1199 61.68 47.2899 61.68C48.4599 61.68 49.7199 62.07 49.8899 63.26L49.1399 63.55C48.9199 62.76 48.0599 62.5 47.2699 62.5C46.5299 62.5 45.6999 62.79 45.6999 63.31C45.6999 64.57 49.9999 63.23 49.9999 65.47L50.0199 65.48Z" fill="#898C8E"/>
<path d="M52.51 67.14V61.86H53.41V67.14H52.51Z" fill="#898C8E"/>
<path d="M55.9299 64.52C55.9299 62.77 57.0399 61.66 58.7299 61.66C60.4199 61.66 61.5599 62.79 61.5599 64.46C61.5599 66.13 60.4399 67.32 58.7599 67.32C57.0799 67.32 55.9399 66.19 55.9399 64.52H55.9299ZM58.7299 62.53C57.5899 62.53 56.8699 63.25 56.8699 64.44C56.8699 65.63 57.5899 66.46 58.7399 66.46C59.8899 66.46 60.6099 65.74 60.6099 64.55C60.6099 63.36 59.8699 62.53 58.7199 62.53H58.7299Z" fill="#898C8E"/>
<path d="M69.3501 67.14H68.4401L64.9901 63.25V67.14H64.0901V61.86H65.0001L68.4601 65.79V61.86H69.3601V67.14H69.3501Z" fill="#898C8E"/>
<path d="M76.03 65.63H73.18C72.97 66.08 72.72 66.59 72.45 67.14H71.45L74.03 61.86H75.18L77.76 67.14H76.76L76.03 65.63ZM73.6 64.76H75.61L74.68 62.84H74.53L73.6 64.76Z" fill="#898C8E"/>
<path d="M84.4301 67.14H79.8601V61.86H80.7601V66.27H84.4401V67.14H84.4301Z" fill="#898C8E"/>
<path d="M92.6401 61.85C94.0101 61.85 95.0201 62.04 95.0201 63.24C95.0201 63.68 94.8001 63.99 94.5001 64.26C94.9001 64.53 95.1401 64.92 95.1401 65.38C95.1401 66.72 94.0701 67.14 93.0201 67.14H90.1001V61.86C90.5401 61.86 91.7801 61.86 92.6501 61.86L92.6401 61.85ZM93.2601 63.96C93.7601 63.96 94.0101 63.59 94.0101 63.32C94.0101 63.01 93.7401 62.73 93.1401 62.73C92.7201 62.73 92.1601 62.75 90.9901 62.75V63.96H93.2601ZM90.9901 66.29C91.2601 66.29 92.6301 66.31 93.0601 66.31C93.6201 66.31 94.1401 66.03 94.1401 65.47C94.1401 65 93.6501 64.83 93.0901 64.83H90.9901V66.3V66.29Z" fill="#898C8E"/>
<path d="M101.41 65.63H98.5601C98.3501 66.08 98.1001 66.59 97.8301 67.14H96.8301L99.4101 61.86H100.56L103.14 67.14H102.14L101.41 65.63ZM98.9801 64.76H100.99L100.06 62.84H99.9101L98.9801 64.76Z" fill="#898C8E"/>
<path d="M105.64 64.48C105.64 65.7 106.5 66.41 107.67 66.41C108.58 66.41 109.24 65.89 109.42 65.02H107.59V64.22H110.38C110.44 66.31 109.2 67.33 107.56 67.33C105.92 67.33 104.68 66.14 104.68 64.49C104.68 62.7 105.93 61.71 107.59 61.71C108.69 61.71 109.9 62.12 110.21 63.47L109.41 63.76C109.14 62.9 108.31 62.6 107.57 62.6C106.4 62.6 105.65 63.31 105.65 64.49L105.64 64.48Z" fill="#898C8E"/>
<path d="M117.82 65.48C117.82 66.93 116.35 67.35 115.18 67.35C114.29 67.35 112.73 67.22 112.43 65.79L113.22 65.41C113.55 66.29 114.39 66.41 115.08 66.41C115.7 66.41 116.83 66.28 116.83 65.55C116.83 64.19 112.46 65.69 112.46 63.4C112.46 62.16 113.92 61.68 115.09 61.68C116.26 61.68 117.52 62.07 117.69 63.26L116.94 63.55C116.72 62.76 115.86 62.5 115.07 62.5C114.33 62.5 113.5 62.79 113.5 63.31C113.5 64.57 117.8 63.23 117.8 65.47L117.82 65.48Z" fill="#898C8E"/>
<path d="M2.99001 78.29L4.85001 74.58H5.99001V79.86H5.09001V76.17C4.72001 76.85 3.57001 79.18 3.21001 79.86H2.78001L0.91001 76.17V79.86H0.0100098V74.58H1.14001C1.51001 75.28 2.64001 77.6 3.00001 78.29H2.99001Z" fill="#898C8E"/>
<path d="M12.7299 78.35H9.8799C9.6699 78.8 9.4199 79.31 9.1499 79.86H8.1499L10.7299 74.58H11.8799L14.4599 79.86H13.4599L12.7299 78.35ZM10.2999 77.48H12.3099L11.3799 75.56H11.2299L10.2999 77.48Z" fill="#898C8E"/>
<path d="M21.8301 79.86H20.9201L17.4701 75.97V79.86H16.5701V74.58H17.4801L20.9401 78.51V74.58H21.8401V79.86H21.8301Z" fill="#898C8E"/>
<path d="M24.6201 77.91V74.58H25.5201V77.7C25.5201 78.63 26.0601 79.15 27.1901 79.15C28.3201 79.15 28.8601 78.63 28.8601 77.7V74.58H29.7601V77.91C29.7601 79.19 28.8001 80.06 27.1901 80.06C25.5801 80.06 24.6201 79.19 24.6201 77.91Z" fill="#898C8E"/>
<path d="M32.54 74.58H37.34V75.47H33.44V76.76H36.67V77.67H33.44V79.86H32.54V74.58Z" fill="#898C8E"/>
<path d="M42.9501 78.35H40.1001C39.8901 78.8 39.6401 79.31 39.3701 79.86H38.3701L40.9501 74.58H42.1001L44.6801 79.86H43.6801L42.9501 78.35ZM40.5201 77.48H42.5301L41.6001 75.56H41.4501L40.5201 77.48Z" fill="#898C8E"/>
<path d="M49.13 75.31C48.02 75.31 47.1699 75.96 47.1699 77.17C47.1699 78.38 48.04 79.12 49.22 79.12C50.08 79.12 50.8599 78.63 51.0099 77.74C51.2599 77.85 51.5099 77.96 51.7599 78.07C51.5999 79.54 50.2799 80.05 49.0999 80.05C47.4099 80.05 46.2 78.83 46.2 77.18C46.2 75.53 47.43 74.43 49.15 74.43C50.41 74.43 51.52 74.99 51.79 76.22L50.99 76.53C50.74 75.7 49.8799 75.32 49.1399 75.32L49.13 75.31Z" fill="#898C8E"/>
<path d="M59.08 75.47H56.73V79.86H55.83V75.47H53.49V74.58H59.08V75.47Z" fill="#898C8E"/>
<path d="M61.1499 77.91V74.58H62.0499V77.7C62.0499 78.63 62.5899 79.15 63.7199 79.15C64.8499 79.15 65.3899 78.63 65.3899 77.7V74.58H66.2899V77.91C66.2899 79.19 65.3299 80.06 63.7199 80.06C62.1099 80.06 61.1499 79.19 61.1499 77.91Z" fill="#898C8E"/>
<path d="M72.0401 77.73H69.9601V79.87H69.0601V74.59H72.3601C73.6401 74.59 74.3701 75.2 74.3701 76.13C74.3701 76.93 73.8001 77.5 73.0301 77.61C73.2901 78.56 73.4701 79.11 73.9201 79.11C74.0701 79.11 74.2301 79.06 74.3601 79V79.87C74.0501 79.97 73.7901 80.02 73.5601 80.02C72.6801 80.02 72.5201 78.91 72.0401 77.73ZM72.2901 76.94C72.6801 76.94 73.2501 76.66 73.2501 76.16C73.2501 75.72 72.9101 75.45 72.2001 75.45C71.5401 75.45 70.8701 75.45 69.9501 75.47V76.94H72.2901Z" fill="#898C8E"/>
<path d="M81.8499 79.86H76.9099V74.58H81.6999V75.47H77.7999V76.69H81.0399V77.59H77.7999V78.98H81.8499V79.85V79.86Z" fill="#898C8E"/>
<path d="M87.21 77.73H85.13V79.87H84.23V74.59H87.53C88.81 74.59 89.54 75.2 89.54 76.13C89.54 76.93 88.97 77.5 88.2 77.61C88.46 78.56 88.64 79.11 89.09 79.11C89.24 79.11 89.4 79.06 89.53 79V79.87C89.22 79.97 88.96 80.02 88.73 80.02C87.85 80.02 87.69 78.91 87.21 77.73ZM87.46 76.94C87.85 76.94 88.42 76.66 88.42 76.16C88.42 75.72 88.08 75.45 87.37 75.45C86.71 75.45 86.04 75.45 85.12 75.47V76.94H87.46Z" fill="#898C8E"/>
</g>
<defs>
<clipPath id="clip0_29_3102">
<rect width="255.58" height="80.05" fill="white"/>
</clipPath>
</defs>
</svg>
