<svg width="366" height="40" viewBox="0 0 366 40" fill="none" xmlns="http://www.w3.org/2000/svg">
<g clip-path="url(#clip0_27_2872)">
<path d="M216.164 19.9856L228.407 39.9712H216.128L208.421 27.6929L200.721 39.9712H188.443L200.685 19.9856L188.443 0H200.721L208.421 12.2855L216.128 0H228.407L216.164 19.9856Z" fill="#161519"/>
<path d="M56.6618 39.8991C45.5299 39.8991 36.4744 30.9517 36.4744 19.9567C36.4744 8.96179 45.5299 0 56.6618 0C67.7938 0 76.8493 8.94737 76.8493 19.9423C76.8493 30.9373 67.7938 39.8846 56.6618 39.8846V39.8991ZM56.6618 10.036C51.0237 10.036 46.4311 14.4845 46.4311 19.9567C46.4311 25.429 51.0165 29.8774 56.6618 29.8774C62.3071 29.8774 66.8925 25.429 66.8925 19.9567C66.8925 14.4845 62.3071 10.036 56.6618 10.036Z" fill="#161519"/>
<path d="M237.116 32.8046C238.854 32.8046 240.267 34.2394 240.267 36.0058C240.267 37.7722 238.854 39.2069 237.116 39.2069C235.378 39.2069 233.965 37.7722 233.965 36.0058C233.965 34.2394 235.378 32.8046 237.116 32.8046ZM237.116 32.0043C234.931 32.0043 233.165 33.7924 233.165 36.0058C233.165 38.2192 234.931 40.0072 237.116 40.0072C239.301 40.0072 241.067 38.2192 241.067 36.0058C241.067 33.7924 239.301 32.0043 237.116 32.0043Z" fill="#161519"/>
<path d="M238.868 35.0757C238.868 35.3929 238.782 35.6597 238.601 35.8832C238.428 36.1067 238.154 36.2653 237.787 36.3735V36.3879L239.142 38.2624H238.14L236.9 36.496H236.33V38.2624H235.494V33.7058H236.878C237.109 33.7058 237.318 33.7203 237.52 33.7419C237.715 33.7707 237.888 33.8068 238.025 33.8572C238.291 33.9582 238.5 34.1096 238.645 34.3115C238.789 34.5133 238.861 34.7657 238.861 35.0685L238.868 35.0757ZM236.741 35.8039C236.929 35.8039 237.094 35.7967 237.224 35.7751C237.354 35.7534 237.469 35.7318 237.563 35.6957C237.729 35.6309 237.844 35.5443 237.909 35.4362C237.974 35.328 238.003 35.1983 238.003 35.0541C238.003 34.9315 237.974 34.8234 237.924 34.7296C237.873 34.6359 237.787 34.5638 237.664 34.5061C237.585 34.4701 237.484 34.4412 237.361 34.4268C237.239 34.4124 237.094 34.398 236.914 34.398H236.316V35.7967H236.727L236.741 35.8039Z" fill="#161519"/>
<path d="M36.2437 0.021637L13.6554 22.372H11.3771V39.9567H0V0.021637H11.3771V10.8075L22.1485 0.021637H36.2437Z" fill="#161519"/>
<path d="M183.973 0H172.595V39.9351H183.973V0Z" fill="#161519"/>
<path d="M121.427 0.00720981V39.9423H110.058V39.9567H108.753L92.2494 16.734V39.9423H80.8723V0.00720981L94.0735 0L110.05 22.3937V0.00720981H121.427Z" fill="#161519"/>
<path d="M167.102 0.00720981V39.9423H155.725V39.9567H154.42L137.916 16.734V39.9423H126.539V0.00720981L139.748 0L155.725 22.3937L155.717 0.00720981H167.102Z" fill="#161519"/>
<path d="M25.7318 22.3936L13.6986 22.4009H13.6914L26.1644 39.9567H38.212L25.7318 22.3936Z" fill="#161519"/>
<path d="M255.242 27.7938H254.391V22.8046H257.318C258.738 22.8046 259.351 23.4174 259.351 24.3259C259.351 25.0396 258.717 25.9553 257.592 25.9625L255.234 25.9769V27.7938H255.242ZM255.242 23.6481V25.1117H257.188C257.953 25.1117 258.356 24.8089 258.356 24.3403C258.356 23.9221 258.039 23.6265 257.369 23.6265C257.044 23.6265 255.48 23.6481 255.242 23.6481Z" fill="#161519"/>
<path d="M264.376 25.775H262.408V27.7938H261.557V22.8046H264.672C265.883 22.8046 266.568 23.3814 266.568 24.261C266.568 25.018 266.027 25.5515 265.299 25.6597C265.544 26.5609 265.71 27.08 266.143 27.08C266.287 27.08 266.438 27.0368 266.561 26.9719V27.7938C266.265 27.8947 266.02 27.938 265.804 27.938C264.968 27.938 264.823 26.8853 264.369 25.775H264.376ZM264.614 25.0324C264.982 25.0324 265.523 24.7729 265.523 24.297C265.523 23.8789 265.198 23.6265 264.535 23.6265C263.915 23.6265 263.281 23.6265 262.415 23.6409V25.0324H264.622H264.614Z" fill="#161519"/>
<path d="M268.587 25.3208C268.587 23.6698 269.64 22.6172 271.226 22.6172C272.812 22.6172 273.893 23.6842 273.893 25.2632C273.893 26.8421 272.833 27.9668 271.247 27.9668C269.661 27.9668 268.587 26.8998 268.587 25.3208ZM271.226 23.4391C270.151 23.4391 269.467 24.124 269.467 25.2487C269.467 26.3735 270.151 27.1593 271.24 27.1593C272.329 27.1593 273.014 26.4744 273.014 25.3497C273.014 24.2249 272.314 23.4391 271.226 23.4391Z" fill="#161519"/>
<path d="M276.273 22.8046H280.808V23.6481H277.123V24.8666H280.18V25.7318H277.123V27.801H276.273V22.8118V22.8046Z" fill="#161519"/>
<path d="M287.592 27.7938H282.927V22.8046H287.455V23.6481H283.771V24.8017H286.835V25.6597H283.771V26.9719H287.599V27.7938H287.592Z" fill="#161519"/>
<path d="M294.535 26.2221C294.535 27.5847 293.144 27.9885 292.041 27.9885C291.197 27.9885 289.726 27.8659 289.445 26.5177L290.195 26.1572C290.512 26.9935 291.298 27.1017 291.954 27.1017C292.538 27.1017 293.605 26.9791 293.605 26.2942C293.605 25.0108 289.481 26.4312 289.481 24.2682C289.481 23.1002 290.858 22.6388 291.961 22.6388C293.064 22.6388 294.254 23.0065 294.42 24.1312L293.713 24.4052C293.504 23.6554 292.689 23.4175 291.947 23.4175C291.248 23.4175 290.462 23.6914 290.462 24.1817C290.462 25.3641 294.528 24.1096 294.528 26.2221H294.535Z" fill="#161519"/>
<path d="M301.572 26.2221C301.572 27.5847 300.18 27.9885 299.085 27.9885C298.241 27.9885 296.77 27.8659 296.489 26.5177L297.239 26.1572C297.556 26.9935 298.342 27.1017 298.991 27.1017C299.575 27.1017 300.642 26.9791 300.642 26.2942C300.642 25.0108 296.518 26.4312 296.518 24.2682C296.518 23.1002 297.895 22.6388 298.998 22.6388C300.101 22.6388 301.291 23.0065 301.457 24.1312L300.75 24.4052C300.541 23.6554 299.726 23.4175 298.984 23.4175C298.284 23.4175 297.498 23.6914 297.498 24.1817C297.498 25.3641 301.565 24.1096 301.565 26.2221H301.572Z" fill="#161519"/>
<path d="M303.908 27.7938V22.8046H304.758V27.7938H303.908Z" fill="#161519"/>
<path d="M307.138 25.3208C307.138 23.6698 308.19 22.6172 309.776 22.6172C311.363 22.6172 312.444 23.6842 312.444 25.2632C312.444 26.8421 311.384 27.9668 309.798 27.9668C308.212 27.9668 307.138 26.8998 307.138 25.3208ZM309.776 23.4391C308.702 23.4391 308.025 24.124 308.025 25.2487C308.025 26.3735 308.709 27.1593 309.798 27.1593C310.887 27.1593 311.572 26.4744 311.572 25.3497C311.572 24.2249 310.872 23.4391 309.784 23.4391H309.776Z" fill="#161519"/>
<path d="M319.798 27.7938H318.933L315.667 24.1168V27.7938H314.816V22.8046H315.674L318.947 26.5176V22.8046H319.798V27.7938Z" fill="#161519"/>
<path d="M326.1 26.3662H323.403C323.201 26.7916 322.971 27.2747 322.711 27.7938H321.767L324.204 22.8046H325.292L327.729 27.7938H326.785L326.092 26.3662H326.1ZM323.807 25.5443H325.703L324.824 23.7275H324.679L323.8 25.5443H323.807Z" fill="#161519"/>
<path d="M334.023 27.7938H329.705V22.8046H330.555V26.9719H334.03V27.7938H334.023Z" fill="#161519"/>
<path d="M341.767 22.7974C343.057 22.7974 344.016 22.9776 344.016 24.1096C344.016 24.5277 343.807 24.8233 343.519 25.0757C343.893 25.328 344.117 25.6957 344.117 26.1355C344.117 27.4045 343.1 27.7938 342.113 27.7938H339.351V22.8046C339.769 22.8046 340.945 22.7974 341.759 22.7974H341.767ZM342.351 24.7873C342.826 24.7873 343.064 24.4412 343.064 24.1817C343.064 23.8861 342.812 23.6265 342.242 23.6265C341.846 23.6265 341.312 23.6409 340.209 23.6481V24.7873H342.358H342.351ZM340.202 26.9935C340.454 26.9935 341.752 27.0079 342.163 27.0079C342.697 27.0079 343.18 26.7484 343.18 26.2148C343.18 25.775 342.718 25.6092 342.192 25.6092H340.202V27.0007V26.9935Z" fill="#161519"/>
<path d="M350.043 26.3662H347.347C347.145 26.7916 346.914 27.2747 346.655 27.7938H345.71L348.147 22.8046H349.236L351.673 27.7938H350.728L350.036 26.3662H350.043ZM347.751 25.5443H349.647L348.767 23.7275H348.623L347.743 25.5443H347.751Z" fill="#161519"/>
<path d="M354.023 25.2776C354.023 26.4239 354.831 27.1016 355.941 27.1016C356.799 27.1016 357.426 26.6042 357.592 25.7895H355.862V25.0324H358.493C358.544 27.0079 357.383 27.9668 355.833 27.9668C354.283 27.9668 353.107 26.8421 353.107 25.2776C353.107 23.5905 354.283 22.6532 355.862 22.6532C356.9 22.6532 358.046 23.0425 358.335 24.3115L357.578 24.5854C357.325 23.7779 356.539 23.4895 355.84 23.4895C354.737 23.4895 354.023 24.16 354.023 25.2776Z" fill="#161519"/>
<path d="M365.516 26.2221C365.516 27.5847 364.124 27.9885 363.021 27.9885C362.178 27.9885 360.707 27.8659 360.426 26.5177L361.175 26.1572C361.493 26.9935 362.278 27.1017 362.927 27.1017C363.511 27.1017 364.578 26.9791 364.578 26.2942C364.578 25.0108 360.454 26.4312 360.454 24.2682C360.454 23.1002 361.831 22.6388 362.935 22.6388C364.038 22.6388 365.227 23.0065 365.393 24.1312L364.687 24.4052C364.477 23.6554 363.663 23.4175 362.92 23.4175C362.221 23.4175 361.435 23.6914 361.435 24.1817C361.435 25.3641 365.501 24.1096 365.501 26.2221H365.516Z" fill="#161519"/>
<path d="M257.203 38.3057L258.962 34.8017H260.036V39.7909H259.185V36.3086C258.839 36.9502 257.751 39.1492 257.405 39.7981H257.001L255.227 36.3086V39.7909H254.376V34.8017H255.444C255.79 35.465 256.864 37.6496 257.203 38.3057Z" fill="#161519"/>
<path d="M266.402 38.3634H263.706C263.504 38.7887 263.273 39.2718 263.014 39.7909H262.069L264.506 34.8017H265.595L268.032 39.7909H267.087L266.395 38.3634H266.402ZM264.11 37.5415H266.006L265.126 35.7246H264.982L264.103 37.5415H264.11Z" fill="#161519"/>
<path d="M274.982 39.7909H274.117L270.851 36.1139V39.7909H270V34.8017H270.858L274.131 38.5148V34.8017H274.982V39.7909Z" fill="#161519"/>
<path d="M277.599 37.9452V34.8017H278.45V37.7505C278.45 38.6301 278.962 39.1132 280.029 39.1132C281.096 39.1132 281.608 38.6229 281.608 37.7505V34.8017H282.459V37.9452C282.459 39.1492 281.55 39.9712 280.036 39.9712C278.522 39.9712 277.614 39.1565 277.614 37.9452H277.599Z" fill="#161519"/>
<path d="M285.069 34.8017H289.604V35.6453H285.919V36.8637H288.976V37.7289H285.919V39.7981H285.069V34.8089V34.8017Z" fill="#161519"/>
<path d="M294.896 38.3634H292.199C291.997 38.7887 291.767 39.2718 291.507 39.7909H290.562L292.999 34.8017H294.088L296.525 39.7909H295.581L294.888 38.3634H294.896ZM292.603 37.5415H294.499L293.619 35.7246H293.475L292.596 37.5415H292.603Z" fill="#161519"/>
<path d="M300.721 35.4939C299.668 35.4939 298.868 36.1067 298.868 37.2531C298.868 38.3994 299.69 39.0916 300.8 39.0916C301.608 39.0916 302.343 38.6301 302.487 37.7866C302.725 37.8947 302.963 37.9957 303.201 38.0966C303.05 39.4809 301.803 39.9639 300.685 39.9639C299.084 39.9639 297.945 38.8176 297.945 37.2531C297.945 35.6885 299.106 34.6575 300.728 34.6575C301.918 34.6575 302.971 35.1911 303.223 36.3446L302.466 36.6402C302.235 35.8544 301.413 35.5011 300.721 35.5011V35.4939Z" fill="#161519"/>
<path d="M310.115 35.6453H307.895V39.7909H307.044V35.6453H304.831V34.8017H310.115V35.6453Z" fill="#161519"/>
<path d="M312.062 37.9452V34.8017H312.913V37.7505C312.913 38.6301 313.425 39.1132 314.492 39.1132C315.559 39.1132 316.071 38.6229 316.071 37.7505V34.8017H316.921V37.9452C316.921 39.1492 316.013 39.9712 314.499 39.9712C312.985 39.9712 312.076 39.1565 312.076 37.9452H312.062Z" fill="#161519"/>
<path d="M322.336 37.7722H320.368V39.7909H319.517V34.8017H322.632C323.843 34.8017 324.528 35.3785 324.528 36.2581C324.528 37.0151 323.987 37.5487 323.259 37.6568C323.504 38.558 323.67 39.0771 324.102 39.0771C324.247 39.0771 324.398 39.0339 324.521 38.969V39.7909C324.225 39.8918 323.98 39.9351 323.764 39.9351C322.927 39.9351 322.783 38.8825 322.329 37.7722H322.336ZM322.574 37.0296C322.942 37.0296 323.482 36.77 323.482 36.2942C323.482 35.876 323.158 35.6236 322.495 35.6236C321.875 35.6236 321.24 35.6236 320.375 35.6381V37.0223H322.581L322.574 37.0296Z" fill="#161519"/>
<path d="M331.593 39.7909H326.929V34.8017H331.456V35.6453H327.772V36.7988H330.836V37.6568H327.772V38.969H331.601V39.7909H331.593Z" fill="#161519"/>
<path d="M336.648 37.7722H334.679V39.7909H333.829V34.8017H336.943C338.155 34.8017 338.839 35.3785 338.839 36.2581C338.839 37.0151 338.299 37.5487 337.571 37.6568C337.816 38.558 337.981 39.0771 338.414 39.0771C338.558 39.0771 338.71 39.0339 338.832 38.969V39.7909C338.537 39.8918 338.292 39.9351 338.075 39.9351C337.239 39.9351 337.095 38.8825 336.64 37.7722H336.648ZM336.886 37.0296C337.253 37.0296 337.794 36.77 337.794 36.2942C337.794 35.876 337.47 35.6236 336.806 35.6236C336.186 35.6236 335.552 35.6236 334.679 35.6381V37.0223H336.886V37.0296Z" fill="#161519"/>
</g>
<defs>
<clipPath id="clip0_27_2872">
<rect width="365.516" height="40" fill="white"/>
</clipPath>
</defs>
</svg>
