<svg width="160" height="59" viewBox="0 0 160 59" fill="none" xmlns="http://www.w3.org/2000/svg">
<g clip-path="url(#clip0_543_803)">
<path d="M24.7993 11.0472C24.818 10.6456 24.994 10.2679 25.2889 9.99689C25.5837 9.72584 25.9733 9.58354 26.3722 9.6012C27.2484 9.6012 27.6003 10.0832 27.428 11.0472L25.1441 23.5981C24.864 25.138 25.1441 26.2514 25.9628 26.9238C27.0114 27.8154 28.5412 28.2637 30.5521 28.2685C32.1252 28.2797 33.6735 27.8732 35.0408 27.09C35.645 26.7138 36.1579 26.2062 36.5419 25.6044C36.9259 25.0027 37.1713 24.3221 37.2601 23.6125L39.5439 11.0688C39.5662 10.6687 39.7434 10.2932 40.0374 10.0229C40.3314 9.75262 40.7189 9.60902 41.1168 9.62289C41.993 9.62289 42.3449 10.1001 42.1654 11.0688L39.8887 23.6125C39.7471 24.6596 39.388 25.6649 38.8349 26.563C38.2818 27.4611 37.547 28.2319 36.6783 28.8252C34.7229 30.0771 32.4372 30.7046 30.1212 30.6254C27.1407 30.6254 24.9861 29.953 23.6574 28.6228C22.5011 27.5021 22.1276 25.8176 22.537 23.5619L24.7993 11.0472Z" fill="#C4C4C4"/>
<path d="M2.29821 16.6069C2.4305 15.6071 2.76051 14.6441 3.26873 13.7749C3.77696 12.9056 4.45309 12.1478 5.25719 11.546C7.08141 10.2157 9.4754 9.55541 12.4392 9.56505C15.0055 9.56505 16.971 10.1723 18.3356 11.3869C19.6355 12.5148 20.0736 14.2789 19.6499 16.6069L17.3804 29.1794C17.373 29.3789 17.3263 29.5749 17.243 29.7559C17.1596 29.937 17.0413 30.0996 16.8949 30.2342C16.7485 30.3688 16.577 30.4727 16.3903 30.5398C16.2036 30.607 16.0055 30.6361 15.8075 30.6254C14.9528 30.6254 14.6009 30.1482 14.7518 29.1794L17.0356 16.6358C17.3301 15.0235 17.0356 13.8668 16.0804 13.1582C14.8887 12.3354 13.4669 11.9175 12.0226 11.9653C10.2376 11.9028 8.47319 12.3651 6.94495 13.2956C6.38904 13.6684 5.92008 14.1581 5.57042 14.731C5.22077 15.304 4.99873 15.9464 4.91963 16.6141L2.63577 29.165C2.62843 29.3644 2.58172 29.5604 2.49838 29.7415C2.41503 29.9226 2.29671 30.0851 2.15032 30.2197C2.00392 30.3543 1.83238 30.4582 1.64569 30.5254C1.45899 30.5925 1.26089 30.6216 1.06291 30.6109C0.208259 30.6109 -0.143657 30.1338 0.014346 29.165L2.29821 16.6069Z" fill="#C4C4C4"/>
<path d="M96.8489 28.8685C96.6478 29.8951 96.1307 30.4085 95.2617 30.4085C94.3926 30.4085 93.9545 29.8879 94.1413 28.8685L97.1002 12.4208C97.3875 10.835 98.4624 10.0446 100.325 10.0494H108.563C110.238 9.95905 111.894 10.4433 113.26 11.423C113.856 11.9131 114.299 12.566 114.536 13.3034C114.773 14.0408 114.794 14.8313 114.596 15.5802C114.16 17.8937 113.092 19.5132 111.392 20.4386C109.877 21.2448 108.179 21.6409 106.466 21.5881H98.1416L96.8489 28.8685ZM106.904 19.2601C107.989 19.287 109.063 19.0384 110.028 18.5372C110.554 18.2314 111 17.8048 111.331 17.2922C111.662 16.7795 111.867 16.1953 111.931 15.5874C112.03 15.1603 112.007 14.7139 111.864 14.2995C111.722 13.885 111.466 13.5195 111.127 13.2449C110.259 12.634 109.21 12.3382 108.153 12.4063H99.8438L98.6013 19.2529L106.904 19.2601Z" fill="#C4C4C4"/>
<path d="M118.912 12.2328C119.199 10.6712 120.207 9.89039 121.936 9.89039H134.942C136.077 9.78918 136.565 10.1796 136.378 11.0544C136.192 11.9292 135.61 12.2328 134.49 12.2328H121.483L120.269 18.8842H132.364C133.384 18.8842 133.8 19.2747 133.685 20.041C133.57 20.8074 132.967 21.2267 131.933 21.2267H119.846L118.574 28.2034H131.588C132.665 28.2034 133.132 28.6083 132.989 29.418C132.838 30.235 132.22 30.6471 131.143 30.6471H118.129C116.398 30.6471 115.68 29.8663 115.974 28.3046L118.912 12.2328Z" fill="#C4C4C4"/>
<path d="M158.621 9.97705C159.662 9.97705 160.108 10.3964 159.971 11.1627C159.835 11.9291 159.217 12.3484 158.19 12.3484H151.382L148.308 29.2516C148.287 29.6525 148.111 30.0291 147.816 30.2997C147.522 30.5704 147.133 30.7134 146.735 30.6976C145.866 30.6976 145.514 30.206 145.679 29.2516L148.753 12.3484H141.356C140.3 12.3484 139.84 11.9363 139.977 11.1627C140.113 10.3891 140.695 9.97705 141.787 9.98428L158.621 9.97705Z" fill="#C4C4C4"/>
<path d="M83.3468 12.5147C78.815 9.91924 76.5239 7.31652 73.8881 3.42689C73.3122 2.51282 72.5444 1.73685 71.6386 1.15355C70.7328 0.570242 69.7111 0.193763 68.6453 0.0505859C68.2707 0.0128204 67.8942 -0.00407462 67.5177 -2.23431e-05H66.6846C66.1262 -0.00384452 65.5692 0.059259 65.0256 0.187954C63.8655 0.44887 62.7919 1.00667 61.9086 1.80742C61.3625 2.31507 60.8801 2.88807 60.4722 3.51365C57.8795 7.4322 55.6244 10.0638 51.1357 12.7172C46.0652 15.7103 43.5084 19.9469 44.2841 23.9812C45.1387 28.4419 49.6849 31.7098 56.4431 32.7292C59.8934 33.2428 63.3764 33.5014 66.8642 33.5028H67.726C71.265 33.4612 74.7962 33.1567 78.2907 32.5918C85.0346 31.4785 89.5377 28.1455 90.3349 23.6775C91.0746 19.6071 88.4819 15.4356 83.3468 12.5147ZM88.2018 23.2943C87.5842 26.7502 83.6556 29.483 77.9531 30.4301C74.5459 30.9738 71.1038 31.2662 67.6542 31.3049H66.8498C63.4708 31.3126 60.0959 31.0709 56.752 30.582C51.0064 29.7144 47.0778 27.0321 46.4171 23.5908C45.821 20.482 47.99 17.1346 52.2273 14.6403C57.0895 11.7484 59.5098 8.94322 62.2821 4.74271C62.5995 4.26939 62.968 3.83294 63.3809 3.44136C63.9924 2.89335 64.7349 2.51467 65.5355 2.34243C65.92 2.25765 66.3126 2.21643 66.7062 2.21952H67.5177C67.8768 2.21952 68.1641 2.21952 68.4083 2.21952C69.1638 2.33795 69.8844 2.62129 70.5196 3.04966C71.1548 3.47804 71.6892 4.04108 72.0855 4.69934C74.908 8.85646 77.3642 11.6472 82.2695 14.4523C86.5356 16.8671 88.7548 20.1783 88.2018 23.2943Z" fill="#C4C4C4"/>
<path d="M72.107 18.5299C71.8928 18.5815 71.7073 18.7158 71.5905 18.9037C71.4736 19.0917 71.4347 19.3183 71.4822 19.5348C71.5555 20.305 71.4085 21.0801 71.0585 21.7688C70.7355 22.4024 70.2626 22.9462 69.6814 23.3522C69.1002 23.7582 68.4287 24.014 67.726 24.0968C67.0604 24.1894 66.3823 24.1114 65.7546 23.87C65.1269 23.6286 64.5699 23.2317 64.1351 22.7159C63.74 22.246 63.3379 21.7616 62.9644 21.27C65.0472 20.106 66.857 18.8552 66.9863 18.7685L67.0366 18.7251C67.6175 18.3313 68.0659 17.769 68.3221 17.1129C68.4542 16.4379 68.3627 15.7379 68.0618 15.1202C67.7608 14.5026 67.267 14.0013 66.6559 13.6932C66.2023 13.5014 65.705 13.4391 65.2185 13.513C64.732 13.587 64.2752 13.7944 63.8981 14.1125C63.5209 13.7944 63.0641 13.587 62.5776 13.513C62.0911 13.4391 61.5938 13.5014 61.1402 13.6932C60.5992 13.9735 60.1512 14.4068 59.8514 14.9398C59.5516 15.4728 59.4129 16.0823 59.4524 16.6935C59.4539 17.0095 59.4876 17.3244 59.553 17.6334C59.5865 17.9513 59.6564 18.2643 59.7612 18.5661C59.7612 18.6528 59.8187 18.7323 59.8402 18.8119C59.963 19.2565 60.124 19.6895 60.3214 20.106C60.4004 20.2867 60.4938 20.4603 60.5872 20.6338C59.8755 21.0005 59.1298 21.2959 58.3607 21.5158C58.2546 21.5429 58.1549 21.5907 58.0671 21.6566C57.9794 21.7224 57.9054 21.8051 57.8494 21.8997C57.7934 21.9944 57.7564 22.0992 57.7406 22.2083C57.7249 22.3173 57.7306 22.4284 57.7575 22.5352C57.7843 22.642 57.8319 22.7425 57.8973 22.8308C57.9627 22.9191 58.0448 22.9936 58.1389 23.05C58.2329 23.1064 58.337 23.1436 58.4453 23.1594C58.5536 23.1753 58.664 23.1696 58.7701 23.1425C59.7059 22.8716 60.6129 22.5084 61.4777 22.058C61.9302 22.6943 62.4114 23.2799 62.8638 23.8149C63.3918 24.4465 64.0518 24.9528 64.7967 25.2978C65.5417 25.6427 66.3531 25.8177 67.173 25.8103C67.4131 25.81 67.6529 25.7955 67.8912 25.7669C68.8671 25.6568 69.8003 25.3037 70.6065 24.7394C71.4128 24.1752 72.0667 23.4176 72.5092 22.5352C73.0398 21.5008 73.2381 20.3261 73.0766 19.1734C73.0283 18.9611 72.9006 18.7758 72.72 18.6559C72.5394 18.536 72.3199 18.4909 72.107 18.5299ZM62.0882 19.8819C62.002 19.7228 61.923 19.571 61.8512 19.4119C61.6821 19.0389 61.5382 18.6549 61.4203 18.2624C61.2404 17.7659 61.141 17.2435 61.1258 16.7152C61.1034 16.4412 61.1591 16.1665 61.2863 15.9232C61.4135 15.6799 61.6069 15.4781 61.844 15.3416C62.1275 15.2677 62.4266 15.2829 62.7013 15.3849C62.976 15.487 63.2131 15.6712 63.3809 15.9127C63.4544 15.9947 63.5441 16.0602 63.6443 16.1051C63.7446 16.1499 63.853 16.1731 63.9627 16.173C64.0733 16.1723 64.1826 16.1489 64.2839 16.1041C64.3851 16.0593 64.4762 15.9942 64.5516 15.9127C64.7194 15.6712 64.9566 15.487 65.2313 15.3849C65.506 15.2829 65.8051 15.2677 66.0886 15.3416C66.2622 15.4349 66.4126 15.5666 66.5283 15.7269C66.644 15.8872 66.722 16.0719 66.7565 16.267C66.8026 16.4819 66.7748 16.7063 66.6775 16.9032C66.5487 17.1294 66.3597 17.3147 66.1316 17.4382L64.5588 18.4287C63.7496 18.9155 62.9261 19.3999 62.0882 19.8819Z" fill="#4CC2B1"/>
<path d="M50.0727 6.41288C50.358 6.69312 50.7372 6.85562 51.1356 6.86835C51.6329 6.84686 52.1074 6.6527 52.4786 6.31889C52.7523 6.12562 52.9621 5.85431 53.0812 5.53989C53.2002 5.22548 53.223 4.88239 53.1466 4.55482C53.1153 4.44197 53.072 4.33287 53.0173 4.22948C53.0417 4.10051 53.0417 3.96804 53.0173 3.83907C52.9383 3.54265 52.6654 3.05103 51.703 3.05103C51.5253 3.05106 51.3485 3.07786 51.1787 3.13055C50.8995 3.05565 50.6041 3.07044 50.3337 3.17284C50.0633 3.27525 49.8314 3.46015 49.6705 3.70171C49.4395 4.13719 49.3539 4.63596 49.4263 5.12423C49.4987 5.6125 49.7254 6.06433 50.0727 6.41288Z" fill="#C4C4C4"/>
<path d="M84.4959 6.55741C84.6928 6.77339 84.9394 6.93727 85.2141 7.03458C85.3757 7.09135 85.5456 7.12067 85.7168 7.12133C86.0014 7.11507 86.2803 7.04024 86.5302 6.90313C86.7801 6.76602 86.9938 6.57062 87.1532 6.33329C87.4095 6.03964 87.5681 5.6726 87.6068 5.28363C87.6454 4.89467 87.5622 4.50328 87.3687 4.16435C87.1388 3.78971 86.8086 3.4879 86.4161 3.29352C86.0236 3.09915 85.5846 3.02009 85.1495 3.06542C84.7818 3.10213 84.4339 3.25036 84.1517 3.49048C83.8696 3.73061 83.6665 4.05132 83.5694 4.41016C83.4684 4.70211 83.4492 5.0164 83.5138 5.31863C83.5784 5.62085 83.7243 5.89935 83.9357 6.12363C84.0934 6.30267 84.2835 6.44988 84.4959 6.55741Z" fill="#C4C4C4"/>
<path d="M3.01642 58.46H2.16895V42.0628H6.26985L6.90905 42.4605L5.47265 47.2105C5.35774 47.5936 5.35774 47.8178 5.47265 47.9334C6.39568 49.0747 6.88229 50.5109 6.84441 51.9821C6.85017 52.4049 6.74075 52.8211 6.52803 53.1856C6.31531 53.5502 6.00744 53.8491 5.63784 54.0498C5.22057 54.2279 4.7705 54.3149 4.31737 54.3049C3.86425 54.295 3.41838 54.1883 3.00923 53.992L3.01642 58.46ZM5.88921 42.9304H3.01642V53.0521C3.67514 53.4143 4.44849 53.5025 5.17101 53.2979C5.29084 53.2555 5.40026 53.1877 5.49193 53.0992C5.58359 53.0106 5.65538 52.9034 5.70247 52.7846L5.94666 51.8809C5.94666 50.876 5.43674 49.5674 4.51027 47.9551L4.4169 47.731L4.47436 47.4852L5.88921 42.9304ZM9.42274 44.0294H7.65597V43.1618H12.353V41.4917H13.2005V43.1618H18.0986V44.0294H16.2025C15.8626 45.7018 15.5226 47.1478 15.1827 48.3672H18.4002V49.242H7.13169V48.3672H10.3851C10.1984 47.3551 9.88238 45.9452 9.35092 44.0294H9.42274ZM9.50174 58.5757H8.63272V51.6062C8.62668 51.5649 8.63031 51.5228 8.64333 51.4831C8.65635 51.4435 8.6784 51.4075 8.70771 51.378C8.73702 51.3485 8.77279 51.3263 8.81214 51.3132C8.8515 51.3001 8.89335 51.2964 8.93436 51.3025H17.0644C17.1051 51.2979 17.1463 51.3026 17.185 51.3162C17.2237 51.3299 17.2588 51.3521 17.2878 51.3813C17.3167 51.4104 17.3388 51.4458 17.3524 51.4847C17.3659 51.5237 17.3706 51.5652 17.366 51.6062V58.5757H16.497V57.2671H9.50174V58.5757ZM16.497 56.4068V52.293C16.4992 52.2779 16.498 52.2625 16.4935 52.248C16.489 52.2334 16.4812 52.2201 16.4709 52.209C16.4605 52.1979 16.4478 52.1892 16.4337 52.1837C16.4195 52.1783 16.4043 52.1761 16.3892 52.1773H9.63102C9.53765 52.1773 9.48019 52.2207 9.50174 52.3147V56.4068H16.497ZM14.3424 48.3528L15.0031 45.9163L15.3766 44.0366H10.2846C10.8663 46.408 11.2254 47.8467 11.2972 48.3745L14.3424 48.3528Z" fill="#C4C4C4"/>
<path d="M50.166 44.5066C50.0888 48.4753 49.5855 52.424 48.665 56.2839L47.7242 56.1321C48.5942 52.282 49.104 48.3584 49.2468 44.4126L50.166 44.5066ZM53.4051 42.4822V56.4502C53.374 56.5916 53.3917 56.7396 53.4554 56.8695C53.518 56.9344 53.5946 56.9839 53.6793 57.014C53.7641 57.0441 53.8546 57.054 53.9438 57.043H60.1203C60.2264 57.0505 60.3328 57.032 60.4303 56.9892C60.5278 56.9464 60.6136 56.8806 60.6805 56.7972C60.9605 56.3562 61.1114 54.903 61.1329 52.5316L61.9804 52.7413C62.0522 55.4308 61.8655 57.0792 61.4346 57.513C61.3008 57.6565 61.136 57.767 60.9529 57.836C60.7698 57.905 60.5733 57.9305 60.3788 57.9106H53.5703C53.3554 57.924 53.1425 57.8627 52.967 57.7371C52.8002 57.6046 52.672 57.4292 52.5961 57.2293C52.5203 57.0295 52.4995 56.8127 52.5361 56.602V42.4822H53.4051ZM56.6729 41.4773C57.6874 44.9777 58.3302 48.5766 58.5905 52.2135L57.6497 52.3798C57.3739 48.7607 56.7387 45.1786 55.7536 41.687L56.6729 41.4773ZM62.4903 43.6896C63.7141 47.6141 64.5324 51.6553 64.9322 55.7489L63.9913 55.9224C63.5793 51.8508 62.7661 47.8306 61.5638 43.921L62.4903 43.6896Z" fill="#C4C4C4"/>
<path d="M101.812 41.2893H102.673V42.5762H110.653C110.782 42.5762 110.839 42.6702 110.825 42.8799C110.754 43.8562 110.595 44.8241 110.351 45.7718L109.504 45.526L109.784 43.5884C109.784 43.4944 109.784 43.4582 109.676 43.4582H94.8882C94.8308 43.4582 94.8164 43.4582 94.8164 43.5378V45.7862H93.9474V42.757C93.9474 42.6413 94.0048 42.5907 94.1198 42.5907H101.812V41.2893ZM96.0661 46.1694H95.1252V45.3018H98.2494V44.1668H99.1112V45.3018H101.984V46.1694H100.691L100.167 48.4251H102.422V49.2782H94.0623V48.4251H96.5257L96.0661 46.1694ZM96.0661 58.5902H95.1971V50.9049C95.1969 50.8783 95.2023 50.8519 95.213 50.8276C95.2237 50.8033 95.2394 50.7815 95.2591 50.7637C95.2788 50.7459 95.302 50.7326 95.3272 50.7245C95.3524 50.7164 95.3791 50.7139 95.4053 50.7169H101.216C101.366 50.7169 101.445 50.7892 101.445 50.9049V57.5925C101.453 57.7524 101.418 57.9114 101.345 58.0536C101.272 58.1957 101.163 58.316 101.029 58.4022C100.655 58.6697 99.9013 58.7059 98.788 58.4817V57.5129C99.2749 57.7244 99.8171 57.7701 100.332 57.6431C100.407 57.6047 100.47 57.5457 100.514 57.4727C100.557 57.3997 100.579 57.3159 100.576 57.231V56.2477H96.0661V58.5902ZM100.576 53.0811V51.6351L100.505 51.5917H96.1163L96.0661 51.6351V53.0811H100.576ZM100.576 55.3729V53.927H96.0661V55.3729H100.576ZM99.298 48.4251L99.7289 46.9285L99.8797 46.2056H96.9064L97.4019 48.4613L99.298 48.4251ZM104.002 57.1008C104.002 57.2165 104.117 57.325 104.34 57.419C105.29 57.5633 106.252 57.6214 107.212 57.5925C107.983 57.6282 108.756 57.5651 109.511 57.4045C109.719 57.2888 109.848 56.9852 109.942 56.4357L110.768 56.6815C110.732 57.5129 110.523 58.0263 110.207 58.2142C109.339 58.58 108.395 58.7312 107.457 58.6553C105.446 58.6553 104.239 58.5034 103.794 58.2576C103.598 58.183 103.427 58.0547 103.3 57.8873C103.173 57.7199 103.096 57.5201 103.076 57.3105V49.524C103.071 49.4906 103.074 49.4565 103.084 49.4245C103.095 49.3925 103.113 49.3634 103.137 49.3395C103.16 49.3156 103.189 49.2977 103.221 49.287C103.253 49.2764 103.287 49.2734 103.32 49.2782H108.455C108.473 49.2804 108.491 49.2786 108.508 49.2729C108.525 49.2672 108.541 49.2578 108.554 49.2454C108.567 49.233 108.577 49.2178 108.583 49.201C108.59 49.1842 108.593 49.1661 108.591 49.1481V48.2371L108.498 48.1648H103.435C103.191 48.1648 103.076 48.0347 103.076 47.7816V44.3547H103.945V45.1862H108.872V46.061H103.995V47.1744C103.995 47.2756 104.031 47.3262 104.124 47.3262H109.31C109.34 47.3225 109.372 47.326 109.401 47.3364C109.43 47.3469 109.456 47.3639 109.478 47.3863C109.499 47.4087 109.516 47.4358 109.525 47.4655C109.534 47.4952 109.537 47.5267 109.532 47.5575V49.7915C109.541 49.8457 109.537 49.9012 109.52 49.9534C109.503 50.0056 109.474 50.0531 109.436 50.0919C109.397 50.1307 109.35 50.1598 109.298 50.1767C109.246 50.1936 109.191 50.1979 109.137 50.1892H104.11L104.052 50.247V51.3965H109.41V52.2714H103.995V53.3847H109.353V54.2595H103.995V55.4741H109.353V56.3417H103.995L104.002 57.1008Z" fill="#C4C4C4"/>
<path d="M143.302 58.5324H142.512V49.9578C142.158 51.522 141.582 53.0268 140.803 54.4258L139.955 54.2162C140.95 52.5249 141.632 50.6655 141.966 48.7288H140.192V47.9335H142.541V41.5713H143.331V47.9335H145.722V48.7288H143.762C144.48 50.0157 145.198 51.3243 145.794 52.669L145.026 53.0811C144.595 52.0256 144.006 50.8326 143.331 49.5024L143.302 58.5324ZM141.061 42.822C141.433 44.1293 141.731 45.4569 141.952 46.7984L141.104 46.8924C140.936 45.572 140.631 44.2731 140.192 43.0172L141.061 42.822ZM145.729 42.9739C145.502 44.3028 145.175 45.6126 144.753 46.8924L143.941 46.6249C144.366 45.3666 144.688 44.0754 144.904 42.7642L145.729 42.9739ZM151.224 56.2044H147.137V55.4091H151.224V54.274H147.216C147.137 54.274 147.101 54.274 147.101 54.1439V49.3722C147.099 49.3565 147.1 49.3404 147.105 49.3252C147.11 49.31 147.118 49.2962 147.129 49.285C147.141 49.2737 147.154 49.2652 147.169 49.2603C147.184 49.2554 147.2 49.2541 147.216 49.2566H155.992C156.086 49.2566 156.122 49.2927 156.122 49.3722V54.1439C156.122 54.2379 156.086 54.274 155.992 54.274H152.078V55.4091H156.122V56.2044H152.078V57.325H156.933V58.1203H146.333V57.325H151.224V56.2044ZM156.639 47.2684V48.0781H146.405V47.2828L156.639 47.2684ZM155.777 46.2851H147.216C147.137 46.2851 147.101 46.249 147.101 46.155V42.1352C147.101 42.0629 147.137 42.0268 147.216 42.0268H155.777C155.87 42.0268 155.906 42.0629 155.906 42.1352V46.155C155.906 46.249 155.87 46.2851 155.777 46.2851ZM155.059 43.7836V42.8582L155.023 42.822H148.028L147.992 42.8582V43.7836H155.059ZM147.992 44.5789V45.432L148.028 45.4898H155.023L155.059 45.432V44.5789H147.992ZM151.245 50.0518H148.028L147.992 50.088V51.3387H151.245V50.0518ZM151.245 52.134H147.992V53.4209L148.028 53.4787H151.245V52.134ZM152.107 51.3387H155.274V50.088L155.238 50.0518H152.093L152.107 51.3387ZM152.107 53.5077H155.253L155.289 53.4498V52.1629H152.107V53.5077Z" fill="#C4C4C4"/>
</g>
<defs>
<clipPath id="clip0_543_803">
<rect width="160" height="58.6335" fill="white"/>
</clipPath>
</defs>
</svg>
