<svg width="40" height="40" viewBox="0 0 40 40" fill="none" xmlns="http://www.w3.org/2000/svg">
<rect width="40" height="40" rx="20" fill="#4CC2B1"/>
<path fill-rule="evenodd" clip-rule="evenodd" d="M11.5899 11.3749L11.9412 11.0667H28.8824L29.2334 11.372L31.3511 30.9646L31 31.3407H10L9.64868 30.9675L11.5899 11.3749ZM12.262 11.7481L10.3883 30.6592H30.6083L28.5643 11.7481H12.262Z" fill="white" stroke="white" stroke-width="0.3" stroke-linejoin="bevel"/>
<path fill-rule="evenodd" clip-rule="evenodd" d="M17.0589 14.0458C17.0589 14.0753 17.0589 14.1045 17.0589 14.1334C17.0589 14.3216 16.9009 14.4741 16.706 14.4741C16.511 14.4741 16.353 14.3216 16.353 14.1334C16.353 14.0955 16.353 14.0567 16.353 14.017C16.3522 13.0283 16.351 11.5054 16.8057 10.2099C17.0443 9.53002 17.416 8.8885 18.0008 8.41662C18.5912 7.94016 19.371 7.6593 20.3784 7.6593C21.3842 7.6593 22.1667 7.93438 22.763 8.40304C23.3541 8.86763 23.7352 9.50108 23.983 10.1767C24.4707 11.5067 24.4706 13.0875 24.4706 14.1121V14.1334C24.4706 14.3216 24.3126 14.4741 24.1177 14.4741C23.9227 14.4741 23.7647 14.3216 23.7647 14.1334C23.7647 13.0873 23.7613 11.6142 23.3175 10.4042C23.0979 9.80525 22.7779 9.29349 22.3173 8.93153C21.862 8.57362 21.2423 8.34078 20.3784 8.34078C19.5162 8.34078 18.9022 8.57743 18.4535 8.9395C17.9991 9.30617 17.6864 9.82423 17.4743 10.4286C17.058 11.6146 17.0585 13.0387 17.0589 14.0458Z" fill="white" stroke="white" stroke-width="0.3" stroke-linecap="round" stroke-linejoin="bevel"/>
<path fill-rule="evenodd" clip-rule="evenodd" d="M15.0326 18.709L15.3847 18.3926H25.4435L25.7964 18.7299C25.7977 18.8508 25.7995 18.9776 25.8014 19.1097C25.8217 20.5039 25.8504 22.481 25.2825 24.1524C24.9688 25.0758 24.4656 25.932 23.6567 26.5507C22.8435 27.1727 21.7544 27.5293 20.3203 27.5073C18.8875 27.4854 17.8016 27.1026 16.9944 26.4693C16.1906 25.8388 15.6931 24.9837 15.3903 24.0655C14.7894 22.2437 14.9303 20.0918 15.0326 18.709ZM15.714 19.0741C15.6187 20.4513 15.5498 22.303 16.0629 23.8587C16.3373 24.6905 16.7718 25.4167 17.4395 25.9404C18.1038 26.4615 19.029 26.806 20.3315 26.826C21.6326 26.8459 22.5545 26.5243 23.2184 26.0165C23.8865 25.5055 24.3263 24.7806 24.6118 23.94C25.1405 22.3838 25.1148 20.5215 25.0953 19.1105C25.0952 19.0983 25.095 19.0862 25.0948 19.0741H15.714Z" fill="white" stroke="white" stroke-width="0.3" stroke-linecap="round" stroke-linejoin="bevel"/>
</svg>
