<svg width="20" height="14" viewBox="0 0 20 14" fill="none" xmlns="http://www.w3.org/2000/svg">
<ellipse cx="6.58821" cy="3.07143" rx="0.705883" ry="0.714286" fill="#C4C4C4"/>
<ellipse cx="8.47053" cy="1.64286" rx="0.705883" ry="0.714286" fill="#C4C4C4"/>
<ellipse cx="10.2353" cy="3.07143" rx="0.705883" ry="0.714286" fill="#C4C4C4"/>
<ellipse cx="13.8824" cy="3.07143" rx="0.705883" ry="0.714286" fill="#C4C4C4"/>
<ellipse cx="12.1176" cy="1.64286" rx="0.705883" ry="0.714286" fill="#C4C4C4"/>
<path fill-rule="evenodd" clip-rule="evenodd" d="M7.76465 8.90476C8.62854 8.90476 9.38369 8.44543 9.79289 7.76081C10.1015 8.02865 10.5026 8.19048 10.9411 8.19048C11.4979 8.19048 11.9944 7.92957 12.3179 7.52198C12.6833 8.33648 13.5096 8.90476 14.4705 8.90476C15.77 8.90476 16.8235 7.86543 16.8235 6.58333C16.8235 5.30124 15.77 4.26191 14.4705 4.26191C13.5938 4.26191 12.829 4.73504 12.4242 5.43664C12.1099 4.94467 11.5631 4.61905 10.9411 4.61905C10.4299 4.61905 9.96948 4.83901 9.6472 5.1905C9.21792 4.62664 8.53446 4.26191 7.76465 4.26191C7.10851 4.26191 6.51509 4.52688 6.08834 4.9543C5.79857 4.74331 5.44301 4.61905 5.05877 4.61905C4.08415 4.61905 3.29407 5.41854 3.29407 6.40476C3.29407 7.39099 4.08415 8.19048 5.05877 8.19048C5.35798 8.19048 5.63979 8.11513 5.88669 7.98216C6.31623 8.54262 6.99757 8.90476 7.76465 8.90476Z" fill="#C4C4C4"/>
<path d="M0.910081 11.3255L2.64767 7.9922C2.85128 7.6016 3.25184 7.35714 3.68825 7.35714H16.2486C16.6809 7.35714 17.0784 7.59704 17.2838 7.98193L19.0627 11.3153C19.4861 12.1084 18.9184 13.0714 18.0276 13.0714H1.95066C1.06488 13.0714 0.496817 12.1183 0.910081 11.3255Z" fill="white"/>
<path fill-rule="evenodd" clip-rule="evenodd" d="M3.68827 7.59524C3.33914 7.59524 3.01869 7.7908 2.85581 8.10328L1.11822 11.4366C0.787606 12.0708 1.24206 12.8333 1.95068 12.8333H18.0276C18.7403 12.8333 19.1944 12.0629 18.8557 11.4284L17.0768 8.09507C16.9124 7.78716 16.5945 7.59524 16.2486 7.59524H3.68827ZM2.43957 7.88111C2.68391 7.41239 3.16457 7.11905 3.68827 7.11905H16.2486C16.7674 7.11905 17.2443 7.40693 17.4908 7.8688L19.2698 11.2021C19.7778 12.1539 19.0966 13.3095 18.0276 13.3095H1.95068C0.887747 13.3095 0.206068 12.1658 0.701984 11.2144L2.43957 7.88111Z" fill="#C4C4C4"/>
</svg>
