<svg width="41" height="26" viewBox="0 0 41 26" fill="none" xmlns="http://www.w3.org/2000/svg">
<ellipse cx="13.3765" cy="5.14281" rx="1.41177" ry="1.42857" fill="#4CC2B1"/>
<ellipse cx="17.1412" cy="2.28569" rx="1.41177" ry="1.42857" fill="#4CC2B1"/>
<ellipse cx="20.6706" cy="5.14281" rx="1.41177" ry="1.42857" fill="#4CC2B1"/>
<ellipse cx="27.9647" cy="5.14281" rx="1.41177" ry="1.42857" fill="#4CC2B1"/>
<ellipse cx="24.4353" cy="2.28569" rx="1.41177" ry="1.42857" fill="#4CC2B1"/>
<path fill-rule="evenodd" clip-rule="evenodd" d="M15.7294 16.8095C17.4572 16.8095 18.9675 15.8909 19.7859 14.5216C20.4032 15.0573 21.2054 15.3809 22.0824 15.3809C23.1959 15.3809 24.189 14.8591 24.8359 14.044C25.5667 15.673 27.2194 16.8095 29.1412 16.8095C31.7402 16.8095 33.8471 14.7308 33.8471 12.1667C33.8471 9.60248 31.7402 7.5238 29.1412 7.5238C27.3877 7.5238 25.8581 8.47007 25.0486 9.87327C24.42 8.88933 23.3264 8.23809 22.0824 8.23809C21.06 8.23809 20.1391 8.67801 19.4945 9.38099C18.636 8.25326 17.2691 7.5238 15.7294 7.5238C14.4171 7.5238 13.2303 8.05376 12.3768 8.90858C11.7973 8.48662 11.0862 8.23809 10.3177 8.23809C8.36844 8.23809 6.78827 9.83707 6.78827 11.8095C6.78827 13.782 8.36844 15.3809 10.3177 15.3809C10.9161 15.3809 11.4797 15.2302 11.9735 14.9643C12.8326 16.0852 14.1953 16.8095 15.7294 16.8095Z" fill="#4CC2B1"/>
<path d="M2.02017 21.651L5.49535 14.9843C5.90257 14.2031 6.70369 13.7142 7.57651 13.7142H32.6972C33.5618 13.7142 34.3568 14.194 34.7676 14.9638L38.3255 21.6305C39.1721 23.2168 38.0368 25.1428 36.2552 25.1428H4.10133C2.32978 25.1428 1.19365 23.2366 2.02017 21.651Z" fill="white"/>
<path fill-rule="evenodd" clip-rule="evenodd" d="M7.57655 14.1905C6.87829 14.1905 6.2374 14.5816 5.91162 15.2066L2.43644 21.8732C1.77522 23.1417 2.68413 24.6667 4.10137 24.6667H36.2552C37.6806 24.6667 38.5888 23.1259 37.9115 21.8568L34.3535 15.1901C34.0249 14.5743 33.3889 14.1905 32.6973 14.1905H7.57655ZM5.07916 14.7622C5.56783 13.8248 6.52916 13.2381 7.57655 13.2381H32.6973C33.7348 13.2381 34.6887 13.8139 35.1817 14.7376L38.7396 21.4043C39.7555 23.3079 38.3932 25.6191 36.2552 25.6191H4.10137C1.97551 25.6191 0.612148 23.3316 1.60398 21.4289L5.07916 14.7622Z" fill="#4CC2B1"/>
</svg>
