<svg width="40" height="40" viewBox="0 0 40 40" fill="none" xmlns="http://www.w3.org/2000/svg">
<rect width="40" height="40" rx="20" fill="#4CC2B1"/>
<path d="M31.2689 22.4697L31.156 22.3952L31.1559 22.3952L30.835 22.1838C30.5582 22.0016 30.1623 21.7415 29.6855 21.4294C28.7319 20.8052 27.4542 19.9727 26.1585 19.14C24.8635 18.3077 23.5478 17.4735 22.5192 16.8467C22.0055 16.5337 21.5588 16.2695 21.2202 16.0825L21.1477 16.2138L21.2202 16.0825C21.0517 15.9895 20.9032 15.9118 20.7834 15.8561L20.7201 15.9921L20.7834 15.8561C20.7239 15.8284 20.664 15.8027 20.6078 15.7828C20.5671 15.7684 20.4721 15.7357 20.3643 15.7357C20.2556 15.7357 20.1604 15.7689 20.1194 15.7836C20.0632 15.8037 20.0037 15.8298 19.945 15.8576C19.8267 15.9136 19.6809 15.9917 19.5159 16.0848C19.1845 16.2721 18.7481 16.5365 18.2472 16.8495C17.2438 17.4766 15.9619 18.3109 14.7008 19.1432C13.439 19.976 12.1952 20.8085 11.2671 21.4327C10.8029 21.7449 10.4176 22.005 10.1483 22.1871L9.8359 22.3986L9.83587 22.3986L9.72543 22.4735L9.72506 22.4738L9.72341 22.4749L9.71849 22.4785C9.7143 22.4817 9.70763 22.4871 9.70037 22.4949C9.68659 22.5095 9.67461 22.5282 9.66724 22.5504M31.2689 22.4697C31.2676 22.4689 31.3108 22.4933 31.329 22.5476M31.2689 22.4697L31.2693 22.47L31.2276 22.5332L31.3288 22.5471L31.329 22.5476M31.2689 22.4697L31.2273 22.5331L31.0785 22.5126L31.0629 22.5105L9.9338 22.5135L9.93225 22.5113L9.91405 22.5139L9.91404 22.5139L9.76717 22.535L9.76692 22.5351L9.6676 22.5494L9.66724 22.5504M31.329 22.5476C31.3297 22.5499 31.3304 22.5521 31.3311 22.5545C31.3436 22.5988 31.3316 22.6348 31.3293 22.6418L31.3292 22.6422C31.3255 22.6533 31.3213 22.6614 31.3201 22.6639C31.3183 22.6673 31.3168 22.67 31.316 22.6712L31.3128 22.6765L31.3115 22.6785L31.3105 22.68L31.3079 22.6839L31.2872 22.7141L31.2469 22.773L31.3158 22.9767L29.6433 27.6564M31.329 22.5476L31.4579 22.9286L31.457 23.0271L29.7854 27.7046L29.6433 27.6564M29.6433 27.6564L28.4728 31.1039L28.1554 31.3286H12.7609L12.4435 31.1039L9.6825 22.9718L9.74991 22.7734L9.71078 22.7179L9.68986 22.6882L9.68648 22.6833L9.68532 22.6816L9.68239 22.6771L9.67851 22.6705C9.67734 22.6684 9.67315 22.6609 9.66927 22.6506L9.66908 22.6501C9.66673 22.644 9.65312 22.6085 9.6635 22.5637C9.66456 22.5592 9.66582 22.5547 9.66724 22.5504M29.6433 27.6564L29.7846 27.7068L28.6149 31.1522L28.5595 31.2264L28.242 31.451L28.1554 31.4786H12.7609L12.6743 31.451L12.3568 31.2264L12.3014 31.1522L9.54046 23.02L9.54047 22.9235L9.66724 22.5504M20.2854 16.6845L20.2854 16.6845L20.2855 16.6845C20.2865 16.6847 20.2918 16.6858 20.2984 16.6866C20.2985 16.6866 20.3033 16.6872 20.3107 16.6875L20.3235 16.6564M20.2854 16.6845L20.3472 16.6841L20.339 16.6668M20.2854 16.6845L20.2989 16.6327M20.2854 16.6845L20.293 16.6251M20.3235 16.6564C20.3288 16.6605 20.3341 16.6639 20.339 16.6668M20.3235 16.6564C20.3182 16.6523 20.3127 16.6476 20.3074 16.6421C20.3044 16.6391 20.3016 16.636 20.2989 16.6327M20.3235 16.6564L20.3284 16.6445L20.339 16.6668M20.339 16.6668C20.3498 16.6731 20.3592 16.6768 20.3654 16.6789C20.3732 16.6762 20.385 16.6712 20.398 16.6627M20.339 16.6668L20.4044 16.6489M20.339 16.6668L20.3074 16.6001M20.398 16.6627C20.4011 16.6606 20.4042 16.6584 20.4074 16.6559M20.398 16.6627L20.4044 16.6489M20.398 16.6627L20.4044 16.6489M20.4074 16.6559L20.4205 16.6871C20.4268 16.6869 20.4308 16.6864 20.4313 16.6863L20.4314 16.6863C20.4386 16.6855 20.4442 16.6843 20.4449 16.6841L20.445 16.6841L20.4312 16.6327M20.4074 16.6559C20.4119 16.6524 20.4165 16.6484 20.4211 16.6439C20.4246 16.6403 20.428 16.6366 20.4312 16.6327M20.4074 16.6559L20.4044 16.6489M20.4312 16.6327C20.4317 16.6321 20.4322 16.6315 20.4326 16.6309C20.4342 16.6289 20.4358 16.6268 20.4373 16.6247L20.4288 16.5965L20.4243 16.5817C20.4231 16.5811 20.422 16.5806 20.4208 16.5801C20.4194 16.5794 20.418 16.5788 20.4167 16.5782L20.4242 16.6063M20.4312 16.6327L20.4242 16.6063M20.4242 16.6063L20.426 16.6024L20.4242 16.6063ZM20.293 16.6251C20.2945 16.6271 20.296 16.6291 20.2975 16.631C20.298 16.6316 20.2984 16.6321 20.2989 16.6327M20.293 16.6251L20.3031 16.591M20.293 16.6251L20.3031 16.591M20.2989 16.6327L20.3074 16.6001M20.3074 16.6001L20.3129 16.579C20.3116 16.5796 20.3103 16.5802 20.3089 16.5808C20.3078 16.5813 20.3067 16.5819 20.3056 16.5824L20.3031 16.591M20.3074 16.6001L20.3031 16.591M20.3031 16.591L20.3055 16.596L20.3031 16.591ZM20.3658 16.7199C20.3673 16.7206 20.3688 16.7213 20.3704 16.722L20.373 16.7165L20.3704 16.722C20.4602 16.7638 20.5861 16.829 20.747 16.9179C21.0673 17.0948 21.5001 17.3504 22.0101 17.6612C23.0286 18.2819 24.3365 19.1111 25.6297 19.9422C26.9223 20.7729 28.1976 21.6038 29.1499 22.2271C29.6259 22.5388 30.0212 22.7985 30.2974 22.9802L30.4176 23.0594L28.8696 27.3908L28.8692 27.3919L28.8675 27.3968L28.8672 27.3979L27.8067 30.5215H13.1096L10.5758 23.0582L10.696 22.9768C10.9648 22.7951 11.3494 22.5354 11.8127 22.2238C12.7396 21.6005 13.9808 20.7696 15.2395 19.939C16.4988 19.1079 17.7726 18.2788 18.7656 17.6583C19.2627 17.3476 19.6847 17.0922 19.9973 16.9156C20.1545 16.8268 20.2771 16.7619 20.3644 16.7205C20.3649 16.7203 20.3653 16.7201 20.3658 16.7199Z" fill="white" stroke="white" stroke-width="0.3" stroke-linecap="round" stroke-linejoin="bevel"/>
<path d="M26.8167 14.4071C26.8167 17.9457 23.895 20.8143 20.2909 20.8143C16.6867 20.8143 13.765 17.9457 13.765 14.4071C13.765 10.8686 16.6867 8 20.2909 8C23.895 8 26.8167 10.8686 26.8167 14.4071Z" fill="#4CC2B1"/>
<path d="M25.9974 14.4071C25.9974 17.4974 23.4451 20.0071 20.2908 20.0071C17.1366 20.0071 14.5843 17.4974 14.5843 14.4071C14.5843 11.3169 17.1366 8.80714 20.2908 8.80714C23.4451 8.80714 25.9974 11.3169 25.9974 14.4071ZM20.2908 20.9643C23.9752 20.9643 26.9667 18.0311 26.9667 14.4071C26.9667 10.7831 23.9752 7.85 20.2908 7.85C16.6065 7.85 13.615 10.7831 13.615 14.4071C13.615 18.0311 16.6065 20.9643 20.2908 20.9643Z" fill="white" stroke="white" stroke-width="0.3"/>
</svg>
