<svg version="1.1" xmlns="http://www.w3.org/2000/svg" width="1024" height="1024" viewBox="0 0 1024 1024">
<path fill="" d="M71.214 676.49v-294.36h39.952l154.61 231.109v-231.109h37.342v294.36h-39.952l-154.61-231.312v231.312h-37.34z"></path>
<path fill="" d="M369.577 676.49v-294.36h212.84v34.742h-173.891v90.161h162.835v34.543h-162.835v100.188h180.717v34.742h-219.666z"></path>
<path fill="" d="M694.452 676.49l-78.11-294.36h39.952l44.772 192.956c4.816 20.211 8.969 40.292 12.447 60.245 7.497-31.452 11.913-49.593 13.256-54.413l56.014-198.784h46.98l42.16 148.98c10.57 36.953 18.205 71.689 22.895 104.218 3.744-18.61 8.638-39.952 14.654-64.054l46.183-189.143h39.161l-80.723 294.36h-37.542l-62.049-224.284c-5.216-18.739-8.302-30.256-9.236-34.543-3.082 13.514-5.952 25.031-8.638 34.543l-62.444 224.284h-39.75z"></path>
</svg>
