<svg width="30" height="30" viewBox="0 0 30 30" fill="none" xmlns="http://www.w3.org/2000/svg">
<rect width="30" height="30" fill="white"/>
<path fill-rule="evenodd" clip-rule="evenodd" d="M19.068 4.501C18.7924 4.48342 18.5547 4.69257 18.5371 4.96815C18.5195 5.24373 18.7287 5.48139 19.0043 5.49897L23.3106 5.77374L15.9088 12.7237C14.7502 11.6537 13.2014 11 11.5 11C7.91015 11 5 13.9101 5 17.5C5 21.0898 7.91015 24 11.5 24C15.0899 24 18 21.0898 18 17.5C18 15.9715 17.4724 14.5662 16.5894 13.4563L23.9476 6.54736L23.6439 11.3062C23.6263 11.5818 23.8355 11.8194 24.1111 11.837C24.3866 11.8546 24.6243 11.6455 24.6419 11.3699L25.0239 5.38205C25.0415 5.10646 24.8324 4.86881 24.5568 4.85122L19.068 4.501ZM6 17.5C6 20.5376 8.46243 23 11.5 23C14.5376 23 17 20.5376 17 17.5C17 14.4624 14.5376 12 11.5 12C8.46243 12 6 14.4624 6 17.5Z" fill="black"/>
</svg>
