<svg width="102" height="100" viewBox="0 0 102 100" fill="none" xmlns="http://www.w3.org/2000/svg">
<path fill-rule="evenodd" clip-rule="evenodd" d="M77.6338 1.07188C78.1509 0.574889 78.9769 0.587525 79.4786 1.1001L100.936 23.0227C101.438 23.5353 101.426 24.3537 100.908 24.8507L40.0659 83.3211C39.5487 83.8181 38.7228 83.8055 38.221 83.2929L16.7632 61.3702C16.2615 60.8577 16.2741 60.0393 16.7912 59.5423L77.6338 1.07188Z" fill="black"/>
<path fill-rule="evenodd" clip-rule="evenodd" d="M17.3521 59.2242C17.8117 59.0985 18.304 59.2312 18.636 59.5705L40.0938 81.4931C40.4222 81.8286 40.5424 82.3135 40.4081 82.7614C40.2738 83.2094 39.906 83.5505 39.4461 83.6538L11.2858 89.9761C10.847 90.0746 10.3879 89.9421 10.071 89.6255C9.7541 89.309 9.62414 88.853 9.72712 88.419L16.4296 60.1741C16.5388 59.7142 16.8925 59.35 17.3521 59.2242ZM18.4238 63.0668L12.7451 86.9972L36.6039 81.6407L18.4238 63.0668Z" fill="black"/>
<path fill-rule="evenodd" clip-rule="evenodd" d="M78.8659 15.3936C79.3586 15.9149 79.3354 16.7368 78.8142 17.2295L31.4116 62.0347C30.8903 62.5274 30.0684 62.5042 29.5757 61.983C29.083 61.4617 29.1061 60.6398 29.6274 60.1471L77.03 15.3419C77.5512 14.8492 78.3732 14.8724 78.8659 15.3936Z" fill="white"/>
<path fill-rule="evenodd" clip-rule="evenodd" d="M86.0026 23.1793C86.4989 23.6972 86.4814 24.5193 85.9635 25.0156L39.2103 69.8207C38.6924 70.317 37.8703 70.2995 37.374 69.7817C36.8778 69.2638 36.8953 68.4417 37.4131 67.9455L84.1664 23.1403C84.6842 22.644 85.5063 22.6615 86.0026 23.1793Z" fill="white"/>
<path d="M18.8312 86.4156L13.3442 80.5714L10.3896 88.3636L18.8312 86.4156Z" fill="black"/>
<path fill-rule="evenodd" clip-rule="evenodd" d="M13.0916 79.2975C13.531 79.2104 13.9843 79.3559 14.2909 79.6825L19.778 85.5266C20.0961 85.8655 20.2089 86.3485 20.0737 86.7932C19.9386 87.2379 19.5761 87.5765 19.1232 87.681L10.6816 89.6291C10.2147 89.7368 9.7263 89.5787 9.41117 89.2176C9.09604 88.8566 9.00536 88.3513 9.17526 87.9032L12.1298 80.111C12.2886 79.6921 12.6521 79.3847 13.0916 79.2975ZM13.8211 82.9767L12.4655 86.5517L16.3385 85.658L13.8211 82.9767Z" fill="black"/>
</svg>
