<svg width="100" height="96" viewBox="0 0 100 96" fill="none" xmlns="http://www.w3.org/2000/svg">
<path fill-rule="evenodd" clip-rule="evenodd" d="M50 92.8571C76.1555 92.8571 97.1429 72.5933 97.1429 47.8571C97.1429 23.121 76.1555 2.85714 50 2.85714C23.8445 2.85714 2.85714 23.121 2.85714 47.8571C2.85714 72.5933 23.8445 92.8571 50 92.8571ZM50 95.7143C77.6142 95.7143 100 74.2879 100 47.8571C100 21.4264 77.6142 0 50 0C22.3858 0 0 21.4264 0 47.8571C0 74.2879 22.3858 95.7143 50 95.7143Z" fill="black"/>
<path fill-rule="evenodd" clip-rule="evenodd" d="M77.2208 22.9223C78.2033 23.5822 78.4648 24.9135 77.805 25.896L45.6988 73.703L42.3115 73.9243L23.1207 52.1249C22.3387 51.2366 22.4249 49.8826 23.3132 49.1006C24.2015 48.3186 25.5555 48.4048 26.3375 49.2931L43.6911 69.0055L74.2472 23.5066C74.907 22.5241 76.2383 22.2625 77.2208 22.9223Z" fill="black"/>
</svg>
