<!-- Generated by IcoMoon.io -->
<svg version="1.1" xmlns="http://www.w3.org/2000/svg" width="1024" height="1024" viewBox="0 0 1024 1024">

<path fill="" d="M373.482 281.22c0 19.964-16.154 36.119-36.119 36.119s-36.119-16.154-36.119-36.119c0-19.964 16.154-36.119 36.119-36.119s36.119 16.154 36.119 36.119z"></path>
<path fill="" d="M469.861 208.919c0 19.964-16.154 36.119-36.119 36.119s-36.119-16.154-36.119-36.119c0-19.964 16.154-36.119 36.119-36.119s36.119 16.154 36.119 36.119z"></path>
<path fill="" d="M560.156 281.22c0 19.964-16.154 36.119-36.119 36.119s-36.119-16.154-36.119-36.119c0-19.964 16.154-36.119 36.119-36.119s36.119 16.154 36.119 36.119z"></path>
<path fill="" d="M746.9 281.22c0 19.964-16.154 36.119-36.119 36.119s-36.119-16.154-36.119-36.119c0-19.964 16.154-36.119 36.119-36.119s36.119 16.154 36.119 36.119z"></path>
<path fill="" d="M656.537 208.919c0 19.964-16.154 36.119-36.119 36.119s-36.119-16.154-36.119-36.119c0-19.964 16.154-36.119 36.119-36.119s36.119 16.154 36.119 36.119z"></path>
<path fill="" d="M397.56 576.381c44.26 0 82.919-23.27 103.827-57.871 15.774 13.563 36.343 21.75 58.771 21.75 28.526 0 53.906-13.192 70.51-33.807 18.698 41.216 61.033 69.993 110.211 69.993 66.545 0 120.461-52.6 120.461-117.482 0-64.884-53.916-117.481-120.461-117.481-44.91 0-84.073 23.938-104.804 59.415-16.108-24.862-44.058-41.356-75.917-41.356-26.143 0-49.771 11.132-66.277 28.921-21.997-28.537-56.966-46.98-96.385-46.98-33.565 0-63.989 13.424-85.858 35.053-14.842-10.65-33.032-16.993-52.725-16.993-49.91 0-90.36 40.45-90.36 90.36s40.45 90.359 90.36 90.359c15.34 0 29.722-3.825 42.379-10.516 22.004 28.385 56.855 46.702 96.14 46.702z"></path>
<path fill="#fff" d="M46.595 698.87l88.962-168.678c10.397-19.738 30.955-32.131 53.263-32.131h643.081c22.141 0 42.491 12.147 52.997 31.613l91.11 168.678c21.65 40.166-7.409 88.847-52.997 88.847h-823.153c-45.332 0-74.466-48.238-53.263-88.33z"></path>
<path fill="" d="M188.819 510.098c-17.897 0-34.293 9.874-42.623 25.72l-88.962 168.678c-16.912 32.11 6.37 70.666 42.623 70.666h823.153c36.483 0 59.758-39.012 42.386-71.063l-91.11-168.684c-8.433-15.601-24.701-25.318-42.386-25.318h-643.081zM124.917 524.564c12.527-23.698 37.12-38.546 63.903-38.546h643.081c26.593 0 50.964 14.582 63.608 37.914l91.11 168.678c25.997 48.148-8.85 106.627-63.608 106.627h-823.153c-54.411 0-89.334-57.861-63.903-105.994l88.962-168.678z"></path>
</svg>
