<svg width="30" height="30" viewBox="0 0 30 30" fill="none" xmlns="http://www.w3.org/2000/svg">
<rect width="30" height="30" fill="white"/>
<path d="M3.76172 18V10.8418H4.7334L8.49316 16.4619V10.8418H9.40137V18H8.42969L4.66992 12.375V18H3.76172Z" fill="black"/>
<path d="M11.0176 18V10.8418H16.1934V11.6865H11.9648V13.8789H15.9248V14.7188H11.9648V17.1553H16.3594V18H11.0176Z" fill="black"/>
<path d="M18.918 18L17.0186 10.8418H17.9902L19.0791 15.5342C19.1963 16.0257 19.2972 16.514 19.3818 16.999C19.5641 16.234 19.6715 15.793 19.7041 15.6758L21.0664 10.8418H22.209L23.2344 14.4648C23.4915 15.3633 23.6771 16.208 23.791 16.999C23.8822 16.5465 24.001 16.0273 24.1475 15.4414L25.2705 10.8418H26.2227L24.2598 18H23.3467L21.8379 12.5459C21.7109 12.0902 21.6361 11.8102 21.6133 11.7061C21.5384 12.0348 21.4684 12.3148 21.4033 12.5459L19.8848 18H18.918Z" fill="black"/>
</svg>
