<svg version="1.1" xmlns="http://www.w3.org/2000/svg" width="1024" height="1024" viewBox="0 0 1024 1024">
<path fill="" d="M550.329 197.262l251.073 424.043c56.72 95.814 25.041 219.466-70.754 276.185-95.818 56.72-219.466 25.041-276.185-70.754l-123.007-207.757c-1.904-1.534-3.58-3.431-4.931-5.627-1.5-2.433-2.464-5.037-2.953-7.697l-120.183-202.961c-56.72-95.814-25.042-219.467 70.754-276.186 95.814-56.72 219.466-25.042 276.185 70.754zM377.265 608.422l115.747 195.484c44.118 74.514 140.292 99.151 214.806 55.033 74.514-44.115 99.147-140.289 55.033-214.803l-118.466-200.097-267.12 164.382zM621.551 405.481l-109.773-185.389c-44.115-74.514-140.289-99.148-214.803-55.033s-99.149 140.29-55.034 214.804l112.49 190.003 267.12-164.385z"></path>
</svg>
