<svg width="30" height="30" viewBox="0 0 30 30" fill="none" xmlns="http://www.w3.org/2000/svg">
<rect width="30" height="30" fill="white"/>
<path fill-rule="evenodd" clip-rule="evenodd" d="M16.57 7.97468C15.3038 5.83614 12.5437 5.12896 10.4052 6.39517C8.26665 7.66137 7.55948 10.4215 8.82568 12.56L11.5082 17.0905C11.519 17.1497 11.5408 17.2078 11.5742 17.2621C11.6044 17.3112 11.6418 17.3533 11.6841 17.3877L14.43 22.0253C15.6962 24.1638 18.4562 24.871 20.5948 23.6048C22.7333 22.3386 23.4405 19.5785 22.1743 17.44L16.57 7.97468ZM12.7068 17.1522L15.2904 21.5158C16.2753 23.1791 18.422 23.7292 20.0853 22.7443C21.7486 21.7595 22.2986 19.6128 21.3138 17.9495L18.6693 13.483L12.7068 17.1522ZM18.1597 12.6223L15.7095 8.48416C14.7247 6.82085 12.578 6.27083 10.9147 7.25565C9.25136 8.24047 8.70134 10.3872 9.68616 12.0505L12.1972 16.2916L18.1597 12.6223Z" fill="black"/>
</svg>
