<svg width="30" height="30" viewBox="0 0 30 30" fill="none" xmlns="http://www.w3.org/2000/svg">
<rect width="30" height="30" fill="white"/>
<path fill-rule="evenodd" clip-rule="evenodd" d="M14.5 3.5C11.1863 3.5 8.5 6.18629 8.5 9.5C8.5 12.8137 11.1863 15.5 14.5 15.5C17.8137 15.5 20.5 12.8137 20.5 9.5C20.5 6.18629 17.8137 3.5 14.5 3.5ZM7.5 9.5C7.5 5.63401 10.634 2.5 14.5 2.5C18.366 2.5 21.5 5.63401 21.5 9.5C21.5 13.198 18.6325 16.2262 14.9997 16.4824C14.9999 16.4883 15 16.4941 15 16.5V20H20.5C20.7761 20 21 20.2239 21 20.5C21 20.7761 20.7761 21 20.5 21H15L15 25.5C15 25.7761 14.7761 26 14.5 26C14.2239 26 14 25.7761 14 25.5L14 21H8.5C8.22386 21 8 20.7761 8 20.5C8 20.2239 8.22386 20 8.5 20H14V16.5C14 16.4941 14.0001 16.4883 14.0003 16.4824C10.3675 16.2262 7.5 13.198 7.5 9.5Z" fill="black"/>
</svg>
