<svg width="100" height="69" viewBox="0 0 100 69" fill="none" xmlns="http://www.w3.org/2000/svg">
<path d="M95.4545 68.9394H4.54545V34.1224C4.54545 31.498 7.14965 29.6688 9.61842 30.5592L24.7387 36.0123C26.0373 36.4807 27.4879 36.2054 28.5247 35.294L47.2439 18.8382C48.6609 17.5926 50.7786 17.5796 52.2107 18.8079L71.481 35.3349C72.5163 36.2228 73.949 36.4856 75.232 36.0229L90.3816 30.5592C92.8504 29.6688 95.4545 31.498 95.4545 34.1224V68.9394Z" fill="black"/>
<path d="M11.3636 20.0758C11.3636 23.2137 8.8198 25.7576 5.68182 25.7576C2.54384 25.7576 0 23.2137 0 20.0758C0 16.9378 2.54384 14.3939 5.68182 14.3939C8.8198 14.3939 11.3636 16.9378 11.3636 20.0758Z" fill="black"/>
<path d="M100 20.0758C100 23.2137 97.4562 25.7576 94.3182 25.7576C91.1802 25.7576 88.6364 23.2137 88.6364 20.0758C88.6364 16.9378 91.1802 14.3939 94.3182 14.3939C97.4562 14.3939 100 16.9378 100 20.0758Z" fill="black"/>
<path d="M56.0606 5.68182C56.0606 8.8198 53.5168 11.3636 50.3788 11.3636C47.2408 11.3636 44.697 8.8198 44.697 5.68182C44.697 2.54384 47.2408 0 50.3788 0C53.5168 0 56.0606 2.54384 56.0606 5.68182Z" fill="black"/>
</svg>
