<svg version="1.1" xmlns="http://www.w3.org/2000/svg" width="1024" height="1024" viewBox="0 0 1024 1024">
<path fill="#fff" d="M524.551 852.926c-267.296 0-304.251-308.469-304.251-459.222v-173.423c0-48.53 39.337-87.867 87.867-87.867h427.623c48.53 0 87.867 39.337 87.867 87.867v173.423c-9.736 160.792-31.811 459.222-299.093 459.222z"></path>
<path fill="" d="M208.572 220.279c0-54.999 44.582-99.58 99.58-99.58h427.623c54.998 0 99.58 44.581 99.58 99.58v173.78l-0.024 0.357c-4.848 80.138-12.826 196.937-53.872 293.771-20.603 48.6-49.789 92.826-91.667 124.898-42.031 32.195-96.085 51.553-165.258 51.553-69.247 0-124.197-20.040-167.406-52.955-43.049-32.797-73.789-77.871-95.664-127.088-43.638-98.192-52.908-214.934-52.908-290.9v-173.423zM308.163 144.127c-42.061 0-76.154 34.093-76.154 76.154v173.423c0 74.786 9.22 187.643 50.885 281.382 20.776 46.74 49.388 88.206 88.451 117.963 38.905 29.64 88.811 48.153 153.202 48.153 64.488 0 113.419-17.936 151.005-46.73 37.745-28.908 64.797-69.345 84.344-115.443 39.182-92.441 47.154-205.053 52.030-285.692v-173.067c0-42.061-34.094-76.154-76.154-76.154h-427.623z"></path>
<path fill="" d="M161.377 632.010c88.767-80.51 142.651-366.604 158.503-499.598-206.058 0-269.459 240.81-269.459 363.016 0 87.008 0 237.221 110.949 136.579z"></path>
<path fill="" d="M118.138 273.748c-40.462 73.409-56.001 162.119-56.001 221.675 0 21.811 0.006 47.113 1.702 71.379 1.713 24.457 5.092 46.818 11.373 63.052 6.372 16.471 14.168 23.095 22.983 23.821 10.38 0.858 27.935-5.52 55.314-30.348 20.366-18.47 39.568-49.651 57.136-89.385 17.455-39.484 32.832-86.334 46.015-135.114 24.647-91.158 41.401-188.12 49.919-254.348-90.002 4.907-150.026 59.582-188.438 129.26zM97.613 262.442c42.945-77.893 113.646-141.743 222.264-141.743l11.635 13.103c-7.973 66.925-25.502 172.272-52.229 271.143-13.368 49.43-29.099 97.513-47.208 138.47-17.995 40.704-38.812 75.479-62.823 97.26-28.095 25.487-52.162 38.070-72.977 36.348-22.395-1.847-35.4-19.355-42.902-38.728-7.584-19.611-11.144-44.836-12.894-69.868-1.761-25.15-1.761-51.193-1.761-72.845v-0.171c0-62.649 16.166-155.442 58.912-232.989z"></path>
<path fill="" d="M879.119 632.010c-86.832-80.51-139.551-366.604-155.054-499.598 201.575 0 263.602 240.81 263.602 363.016 0 87.008 0 237.221-108.545 136.579z"></path>
<path fill="" d="M921.145 273.654c39.598 73.42 54.807 162.176 54.807 221.775 0 21.808 0 47.121-1.668 71.402-1.68 24.466-4.981 46.85-11.142 63.116-6.277 16.586-13.906 23.036-22.248 23.748-9.934 0.84-26.987-5.412-53.793-30.268-19.903-18.459-38.699-49.63-55.897-89.385-17.084-39.495-32.12-86.357-45.021-135.134-24.112-91.178-40.505-188.162-48.838-254.395 87.663 4.995 146.245 59.484 183.808 129.15zM941.768 262.536c-41.97-77.834-111.193-141.837-217.703-141.837l-11.64 13.075c7.803 66.913 24.946 172.25 51.095 271.116 13.075 49.427 28.463 97.507 46.172 138.449 17.596 40.694 37.952 75.471 61.466 97.26 27.454 25.457 51.105 38.176 71.7 36.429 22.178-1.876 34.905-19.543 42.19-38.8 7.415-19.591 10.891-44.781 12.605-69.802 1.727-25.144 1.727-51.177 1.727-72.83v-0.171c0-62.613-15.803-155.36-57.617-232.896z"></path>
<path fill="" d="M571.607 829.49h-85.667c-5.404 21.476-2.774 64.439 41.677 64.439s44.766-42.951 43.986-64.439z"></path>
<path fill="" d="M474.573 826.639c1.306-5.209 5.995-8.856 11.358-8.856h85.667c6.305 0 11.483 4.989 11.703 11.298 0.381 10.671 0.703 29.127-5.911 45.16-3.409 8.268-8.833 16.33-17.354 22.262-8.56 5.96-19.36 9.149-32.429 9.149-13.059 0-23.949-3.178-32.613-9.076-8.643-5.877-14.275-13.91-17.746-22.339-6.766-16.411-5.785-35.22-2.673-47.6zM495.85 841.213c-0.674 7.79 0.010 16.686 3.067 24.089 2.066 5.005 5.077 9.051 9.267 11.896 4.155 2.824 10.269 5.022 19.437 5.022 9.159 0 15.077-2.184 19.046-4.946 4.009-2.792 6.953-6.815 9.082-11.967 3.014-7.291 4.029-15.919 4.248-24.089h-64.146z"></path>
</svg>
