<svg width="104" height="85" viewBox="0 0 104 85" fill="none" xmlns="http://www.w3.org/2000/svg">
<path d="M52.5876 78.875C24.0688 78.875 20.125 45.9623 20.125 29.8785V11.375C20.125 6.19733 24.3223 2 29.5 2H75.125C80.3027 2 84.5 6.19732 84.5 11.375V29.8785C83.4617 47.0346 81.1064 78.875 52.5876 78.875Z" fill="white"/>
<path fill-rule="evenodd" clip-rule="evenodd" d="M18.875 11.375C18.875 5.50697 23.632 0.75 29.5 0.75H75.125C80.993 0.75 85.75 5.50697 85.75 11.375V29.9163L85.7477 29.9541C85.2302 38.5045 84.3797 50.9661 79.9999 61.2981C77.8016 66.4839 74.6875 71.2021 70.2193 74.6243C65.7345 78.0591 59.9669 80.125 52.5876 80.125C45.199 80.125 39.3358 77.9869 34.7265 74.4754C30.1338 70.9767 26.8536 66.1672 24.5195 60.9159C19.8631 50.4397 18.875 37.9835 18.875 29.8785V11.375ZM29.5 3.25C25.0127 3.25 21.375 6.88769 21.375 11.375V29.8785C21.375 37.8574 22.3588 49.8994 26.804 59.9005C29.0207 64.8878 32.0738 69.3118 36.2414 72.4867C40.3924 75.649 45.7168 77.625 52.5876 77.625C59.4677 77.625 64.6891 75.7108 68.6992 72.6395C72.726 69.5554 75.613 65.2413 77.6981 60.3224C81.879 50.4597 82.729 38.4438 83.25 29.8408V11.375C83.25 6.88768 79.6123 3.25 75.125 3.25H29.5Z" fill="black"/>
<path d="M13.8382 55.3043C23.3088 46.7143 29.0588 16.1889 30.75 2C8.7647 2 2 27.6935 2 40.7319C2 50.0151 2 66.0419 13.8382 55.3043Z" fill="black"/>
<path fill-rule="evenodd" clip-rule="evenodd" d="M9.2252 17.08C4.9078 24.912 3.25 34.3779 3.25 40.7319C3.25 43.0595 3.2505 45.7583 3.43192 48.3478C3.61477 50.9577 3.97543 53.3427 4.64558 55.0749C5.32559 56.8326 6.15751 57.5393 7.09722 57.617C8.20523 57.7086 10.0773 57.028 12.9984 54.3785C15.1712 52.4078 17.2207 49.081 19.095 44.8415C20.9576 40.6285 22.5978 35.6298 24.0047 30.4255C26.634 20.6995 28.4221 10.354 29.3307 3.28828C19.7274 3.81182 13.3236 9.64524 9.2252 17.08ZM7.03582 15.8731C11.6174 7.56191 19.161 0.75 30.75 0.75L31.9912 2.14794C31.1401 9.28838 29.27 20.5284 26.4181 31.0779C24.9922 36.3524 23.3135 41.4825 21.3815 45.8524C19.4613 50.1957 17.2406 53.9059 14.678 56.2302C11.68 58.9495 9.11279 60.2921 6.89129 60.1085C4.50149 59.911 3.11374 58.0441 2.31398 55.9769C1.50435 53.8842 1.12513 51.193 0.93803 48.5225C0.749999 45.8387 0.749999 43.0606 0.75 40.7501V40.7319C0.749998 34.0475 2.47455 24.1474 7.03582 15.8731Z" fill="black"/>
<path d="M90.4191 55.3043C81.1544 46.7143 75.5294 16.1889 73.875 2C95.3824 2 102 27.6935 102 40.7319C102 50.0151 102 66.0419 90.4191 55.3043Z" fill="black"/>
<path fill-rule="evenodd" clip-rule="evenodd" d="M94.9025 17.0699C99.1273 24.904 100.75 34.3737 100.75 40.7319C100.75 43.0593 100.75 45.7591 100.572 48.3497C100.393 50.9605 100.04 53.3484 99.3833 55.0835C98.7135 56.8531 97.9001 57.5419 97.0091 57.6172C95.9493 57.7067 94.1298 57.0401 91.269 54.3877C89.1451 52.4185 87.1398 49.092 85.3055 44.8507C83.483 40.6368 81.8781 35.6371 80.5016 30.4322C77.929 20.7041 76.1795 10.3566 75.2906 3.28991C84.644 3.82309 90.8943 9.63708 94.9025 17.0699ZM97.103 15.8832C92.6245 7.57853 85.2392 0.75 73.875 0.75L72.6334 2.14477C73.4659 9.28422 75.2952 20.523 78.0847 31.0713C79.4794 36.3451 81.1214 41.4742 83.0109 45.8431C84.8887 50.1847 87.0607 53.8951 89.5692 56.221C92.4989 58.9373 95.0222 60.294 97.2195 60.1083C99.5857 59.9084 100.944 58.0236 101.721 55.9684C102.512 53.8785 102.883 51.1902 103.066 48.5206C103.25 45.8377 103.25 43.0604 103.25 40.7497V40.7319C103.25 34.0517 101.564 24.1554 97.103 15.8832Z" fill="black"/>
<path d="M57.6081 76.375H48.468C47.8916 78.6667 48.1715 83.25 52.9145 83.25C57.6575 83.25 57.6905 78.6667 57.6081 76.375Z" fill="black"/>
<path fill-rule="evenodd" clip-rule="evenodd" d="M47.2557 76.0701C47.3955 75.5145 47.8951 75.125 48.468 75.125H57.6081C58.281 75.125 58.8332 75.6577 58.8573 76.3301C58.8982 77.468 58.9319 79.4382 58.2264 81.1485C57.8623 82.0312 57.284 82.891 56.3745 83.524C55.4605 84.1602 54.3084 84.5 52.9145 84.5C51.5214 84.5 50.3594 84.1607 49.4346 83.5316C48.5126 82.9043 47.9115 82.0469 47.5409 81.1485C46.8189 79.3981 46.9236 77.3906 47.2557 76.0701ZM49.5254 77.625C49.4532 78.4564 49.5262 79.4052 49.852 80.1952C50.0723 80.7292 50.3944 81.1608 50.8409 81.4646C51.2846 81.7664 51.9362 82 52.9145 82C53.8921 82 54.5228 81.7669 54.9464 81.4721C55.3745 81.1741 55.6886 80.7449 55.9153 80.1952C56.2364 79.4168 56.345 78.496 56.369 77.625H49.5254Z" fill="black"/>
</svg>
