<svg width="30" height="30" viewBox="0 0 30 30" fill="none" xmlns="http://www.w3.org/2000/svg">
<rect width="30" height="30" fill="white"/>
<path fill-rule="evenodd" clip-rule="evenodd" d="M15 4C13.8954 4 13 4.89543 13 6V14.6035C12.2114 14.7387 11.379 15.0504 10.6492 15.7687C9.3575 17.0402 8.49999 19.4665 8.5 24C8.5 24.2762 8.72386 24.5 9 24.5H21C21.2761 24.5 21.5 24.2762 21.5 24C21.5 19.4479 20.4918 17.016 19.0435 15.7487C18.3971 15.1831 17.6876 14.8737 17 14.7044V6C17 4.89543 16.1046 4 15 4ZM9.50369 23.5H20.4957C20.4239 19.3955 19.4652 17.4465 18.385 16.5013C17.2577 15.5149 15.8739 15.5 14.7143 15.5C13.552 15.5 12.3303 15.5171 11.3508 16.4813C10.3946 17.4225 9.56545 19.3772 9.50369 23.5ZM12.5 18C12.5 17.7239 12.2761 17.5 12 17.5C11.7239 17.5 11.5 17.7239 11.5 18V22C11.5 22.2761 11.7239 22.5 12 22.5C12.2761 22.5 12.5 22.2761 12.5 22V18ZM15 17.5C15.2761 17.5 15.5 17.7239 15.5 18V22C15.5 22.2761 15.2761 22.5 15 22.5C14.7239 22.5 14.5 22.2761 14.5 22V18C14.5 17.7239 14.7239 17.5 15 17.5ZM18.5 18C18.5 17.7239 18.2761 17.5 18 17.5C17.7239 17.5 17.5 17.7239 17.5 18V22C17.5 22.2761 17.7239 22.5 18 22.5C18.2761 22.5 18.5 22.2761 18.5 22V18Z" fill="black"/>
</svg>
