<svg version="1.1" xmlns="http://www.w3.org/2000/svg" width="1024" height="1024" viewBox="0 0 1024 1024">
<path fill="" d="M131.202 1001.022c-40.482-30.54-46.262-91.137-12.907-135.348l262.839-348.409c-20.089-25.786-36.751-57.793-43.363-98.303-14.815-90.766 21.674-215.984 159.127-398.189 8.339-11.053 23.303-13.824 33.422-6.19l439.798 331.782c10.119 7.636 11.564 22.785 3.227 33.837-136.894 181.465-241.585 254.867-327.321 270.050-48.435 8.578-88.356-1.967-121.339-18.356l-259.791 344.371c-33.352 44.211-93.209 55.295-133.691 24.755zM921.462 372.468l-402.855-303.912c-121.31 166.274-145.023 270.792-133.975 338.491 11.532 70.653 61.797 109.509 104.297 141.568 42.597 32.135 87.888 65.229 152.904 53.717 63.462-11.237 152.871-66.549 279.628-229.864zM645.57 509.771l120.782-160.109c8.339-11.052 23.303-13.823 33.425-6.188 10.119 7.636 11.564 22.785 3.227 33.837l-120.782 160.107c-8.339 11.054-23.303 13.826-33.425 6.191-10.119-7.636-11.564-22.785-3.227-33.837zM538.85 460.664c10.119 7.633 25.083 4.865 33.422-6.191l120.782-160.107c8.339-11.053 6.894-26.203-3.227-33.838s-25.083-4.865-33.422 6.19l-120.786 160.106c-8.336 11.054-6.894 26.204 3.229 33.839zM425.672 343.88l120.782-160.107c8.339-11.053 23.303-13.824 33.422-6.189 10.122 7.635 11.568 22.784 3.229 33.838l-120.786 160.107c-8.339 11.052-23.303 13.823-33.422 6.188-10.119-7.633-11.564-22.781-3.227-33.837z"></path>
</svg>
