<svg width="100" height="96" viewBox="0 0 100 96" fill="none" xmlns="http://www.w3.org/2000/svg">
<path fill-rule="evenodd" clip-rule="evenodd" d="M34.0815 24.9747C37.9555 23.3669 43.4323 22.1429 50.8433 22.1429C58.2468 22.1429 63.4932 23.3646 67.081 25.0051C70.592 26.6106 72.7216 28.7252 73.4377 30.6557C73.8492 31.7652 73.2834 32.9984 72.1738 33.41C71.0642 33.8215 69.831 33.2557 69.4195 32.1461C69.2558 31.7048 68.2712 30.2619 65.2988 28.9027C62.403 27.5786 57.7967 26.4286 50.8433 26.4286C43.8974 26.4286 38.9935 27.5762 35.7243 28.9331C32.3854 30.3188 30.8965 31.8555 30.5173 32.4945L30.4999 32.5233C29.6122 33.9668 29.1755 36.5873 31.384 39.2158C33.7091 41.9831 39.22 45.0667 51.0594 46.2666C57.1956 46.8886 61.7682 47.9563 65.1165 49.3521C68.4663 50.7484 70.7259 52.5317 72.009 54.6575C74.6483 59.0305 72.5265 63.5794 70.8735 66.1142C69.3952 68.3812 66.595 70.0817 63.4019 71.2654C60.1322 72.4775 56.1265 73.2685 51.8306 73.5004C43.2689 73.9626 33.201 72.2181 25.2119 66.7077C24.2377 66.0357 23.9927 64.7013 24.6646 63.7271C25.3366 62.7529 26.671 62.5078 27.6452 63.1798C34.6397 68.0041 43.6872 69.6481 51.5996 69.2209C55.5408 69.0081 59.112 68.285 61.9123 67.2469C64.7891 66.1804 66.5522 64.8948 67.2836 63.7732C68.7975 61.4517 69.5926 58.9478 68.3398 56.8721C67.6768 55.7736 66.2881 54.4836 63.4675 53.3079C60.6454 52.1315 56.5254 51.1283 50.6272 50.5305C38.3977 49.291 31.5046 46.0216 28.1028 41.9728C24.59 37.7919 25.0961 33.1416 26.8407 30.2922C27.8741 28.5628 30.2881 26.5491 34.0815 24.9747Z" fill="black"/>
<path fill-rule="evenodd" clip-rule="evenodd" d="M42.1429 14.2857C43.3263 14.2857 44.2857 15.2451 44.2857 16.4286V80.7143C44.2857 81.8977 43.3263 82.8571 42.1429 82.8571C40.9594 82.8571 40 81.8977 40 80.7143V16.4286C40 15.2451 40.9594 14.2857 42.1429 14.2857Z" fill="black"/>
<path fill-rule="evenodd" clip-rule="evenodd" d="M57.1429 14.2857C58.3263 14.2857 59.2857 15.2451 59.2857 16.4286V80.7143C59.2857 81.8977 58.3263 82.8571 57.1429 82.8571C55.9594 82.8571 55 81.8977 55 80.7143V16.4286C55 15.2451 55.9594 14.2857 57.1429 14.2857Z" fill="black"/>
<path fill-rule="evenodd" clip-rule="evenodd" d="M50 92.8571C76.1555 92.8571 97.1429 72.5933 97.1429 47.8571C97.1429 23.121 76.1555 2.85714 50 2.85714C23.8445 2.85714 2.85714 23.121 2.85714 47.8571C2.85714 72.5933 23.8445 92.8571 50 92.8571ZM50 95.7143C77.6142 95.7143 100 74.2879 100 47.8571C100 21.4264 77.6142 0 50 0C22.3858 0 0 21.4264 0 47.8571C0 74.2879 22.3858 95.7143 50 95.7143Z" fill="black"/>
</svg>
