<svg width="30" height="30" viewBox="0 0 30 30" fill="none" xmlns="http://www.w3.org/2000/svg">
<rect width="30" height="30" fill="white"/>
<path fill-rule="evenodd" clip-rule="evenodd" d="M7.04568 9.50571C6.65232 9.86738 6.5 10.2039 6.5 10.5C6.5 10.7961 6.65232 11.1326 7.04568 11.4943C7.43947 11.8564 8.03688 12.2054 8.81726 12.5089C10.3748 13.1146 12.5606 13.5 15 13.5C17.4394 13.5 19.6252 13.1146 21.1827 12.5089C21.9631 12.2054 22.5605 11.8564 22.9543 11.4943C23.3477 11.1326 23.5 10.7961 23.5 10.5C23.5 10.2039 23.3477 9.86738 22.9543 9.50571C22.5605 9.14365 21.9631 8.79461 21.1827 8.49113C19.6252 7.8854 17.4394 7.5 15 7.5C12.5606 7.5 10.3748 7.8854 8.81726 8.49113C8.03688 8.79461 7.43947 9.14365 7.04568 9.50571ZM8.45482 7.55912C10.1546 6.8981 12.4688 6.5 15 6.5C17.5312 6.5 19.8454 6.8981 21.5452 7.55912C22.3935 7.88902 23.1141 8.29417 23.6312 8.76957C24.1486 9.24537 24.5 9.82957 24.5 10.5C24.5 11.1704 24.1486 11.7546 23.6312 12.2304C23.1141 12.7058 22.3935 13.111 21.5452 13.4409C19.8454 14.1019 17.5312 14.5 15 14.5C12.4688 14.5 10.1546 14.1019 8.45482 13.4409C7.60651 13.111 6.88591 12.7058 6.36885 12.2304C5.85136 11.7546 5.5 11.1704 5.5 10.5C5.5 9.82957 5.85136 9.24537 6.36885 8.76957C6.88591 8.29417 7.60651 7.88902 8.45482 7.55912Z" fill="black"/>
<path fill-rule="evenodd" clip-rule="evenodd" d="M24 9.95056C24.2761 9.95056 24.5 10.1744 24.5 10.4506V19.3809C24.5 19.5253 24.4376 19.6626 24.3288 19.7576C23.2297 20.7171 19.9098 22.5 15 22.5C10.0902 22.5 6.77027 20.7171 5.67117 19.7576C5.56241 19.6626 5.5 19.5253 5.5 19.3809V13.619C5.5 13.3429 5.72386 13.119 6 13.119C6.27614 13.119 6.5 13.3429 6.5 13.619V19.1442C7.57867 19.9763 10.5717 21.5 15 21.5C19.4283 21.5 22.4213 19.9763 23.5 19.1442V10.4506C23.5 10.1744 23.7239 9.95056 24 9.95056Z" fill="black"/>
<path fill-rule="evenodd" clip-rule="evenodd" d="M20.1029 15.6402C20.2593 15.6862 20.3681 15.828 20.372 15.991L20.456 19.49C20.4599 19.6513 20.3601 19.7971 20.2082 19.8518C20.0564 19.9065 19.8866 19.8579 19.7866 19.7311C19.6874 19.6052 19.3991 19.3344 18.9607 18.9853C18.7195 18.7932 18.4409 18.5837 18.138 18.3706C18.0573 18.4311 17.9753 18.4909 17.8921 18.5499C16.7999 19.3237 15.4492 19.9853 14.0919 20.018C12.5059 20.056 10.8567 19.5615 9.72908 17.9551C9.62638 17.8088 9.64123 17.6104 9.76456 17.481C10.2675 16.9533 10.7599 16.5274 11.4244 16.2343C12.0856 15.9426 12.8864 15.7957 13.9898 15.7692C14.5675 15.7553 15.2229 15.9412 15.865 16.2101C16.514 16.4818 17.1825 16.8526 17.7968 17.2412C17.9014 17.3073 18.0045 17.3741 18.106 17.4411C18.8321 16.84 19.3956 16.2186 19.6868 15.7894C19.7784 15.6545 19.9466 15.5942 20.1029 15.6402ZM18.7458 17.8827C18.9935 18.0611 19.2232 18.2355 19.4279 18.3986C19.5174 18.4698 19.6033 18.5398 19.6846 18.6078L19.6465 17.0212C19.3875 17.2992 19.0836 17.5927 18.7458 17.8827ZM17.4756 17.9258C17.4491 17.9088 17.4225 17.8919 17.3959 17.875C16.804 17.5006 16.1736 17.1524 15.5753 16.9019C14.9701 16.6485 14.4299 16.5088 14.0078 16.519C12.9578 16.5442 12.265 16.6832 11.7271 16.9205C11.2779 17.1187 10.915 17.3947 10.53 17.7721C11.4635 18.9227 12.7515 19.2999 14.0739 19.2682C15.2159 19.2407 16.4197 18.674 17.4585 17.9379C17.4642 17.9339 17.4699 17.9298 17.4756 17.9258Z" fill="black"/>
<path fill-rule="evenodd" clip-rule="evenodd" d="M8.33541 10.3399C8.36572 10.0742 8.53514 9.84481 8.7801 9.7377C9.21861 9.54596 9.91307 9.30097 10.5854 9.19551C10.9195 9.14309 11.2922 9.11781 11.6429 9.1756C11.9921 9.23315 12.4127 9.3909 12.6899 9.78797C12.9771 10.1992 13.0487 10.7229 12.7805 11.1864C12.5405 11.6013 12.1103 11.8241 11.6966 11.9162C10.8487 12.1049 9.73379 11.8453 8.63302 11.0267C8.41849 10.8672 8.3051 10.6055 8.33541 10.3399ZM9.96041 10.107C9.62491 10.2055 9.31382 10.3229 9.08058 10.4249C9.35961 10.6324 9.63185 10.7937 9.89188 10.9153C11.4578 11.6478 12.5806 10.9413 12.075 10.2174C11.7407 9.73857 10.778 9.86685 9.96041 10.107Z" fill="black"/>
<path d="M12.75 17.375C12.75 17.5821 12.5821 17.75 12.375 17.75C12.1679 17.75 12 17.5821 12 17.375C12 17.1679 12.1679 17 12.375 17C12.5821 17 12.75 17.1679 12.75 17.375Z" fill="black"/>
<path d="M11.75 10.375C11.75 10.5821 11.5821 10.75 11.375 10.75C11.1679 10.75 11 10.5821 11 10.375C11 10.1679 11.1679 10 11.375 10C11.5821 10 11.75 10.1679 11.75 10.375Z" fill="black"/>
</svg>
