<svg version="1.1" xmlns="http://www.w3.org/2000/svg" width="1024" height="1024" viewBox="0 0 1024 1024"><path fill="" d="M198.073 311.162c-15.527 14.275-21.536 27.552-21.536 39.238s6.009 24.963 21.536 39.239c15.541 14.29 39.123 28.062 69.92 40.042 61.474 23.905 147.733 39.12 244.008 39.12s182.543-15.215 244.006-39.12c30.798-11.979 54.379-25.752 69.921-40.042 15.528-14.276 21.537-27.552 21.537-39.239s-6.009-24.963-21.537-39.238c-15.542-14.288-39.123-28.062-69.921-40.041-61.473-23.906-147.731-39.121-244.006-39.121s-182.543 15.215-244.008 39.121c-30.797 11.979-54.379 25.753-69.92 40.041zM253.681 234.338c67.089-26.093 158.421-41.801 258.319-41.801s191.23 15.708 258.319 41.801c33.475 13.021 61.922 29.010 82.332 47.777 20.421 18.781 34.285 41.831 34.285 68.295s-13.864 49.514-34.285 68.294c-20.41 18.767-48.847 34.758-82.332 47.778-67.090 26.092-158.421 41.801-258.319 41.801s-191.23-15.708-258.319-41.801c-33.476-13.021-61.922-29.011-82.331-47.778-20.424-18.781-34.287-41.831-34.287-68.294 0-26.464 13.863-49.515 34.287-68.295 20.409-18.767 48.845-34.756 82.331-47.777z"></path>
<path fill="" d="M867.2 328.716c10.894 0 19.737 8.83 19.737 19.738v352.451c0 5.699-2.46 11.115-6.754 14.868-43.376 37.871-174.405 108.237-368.173 108.237s-324.798-70.366-368.174-108.237c-4.292-3.753-6.753-9.169-6.753-14.868v-227.403c0-10.894 8.831-19.737 19.737-19.737s19.737 8.832 19.737 19.737v218.063c42.569 32.842 160.701 92.971 335.463 92.971s292.894-60.139 335.463-92.971v-343.112c0-10.898 8.832-19.738 19.737-19.738z"></path>
<path fill="" d="M713.399 553.262c6.168 1.82 10.462 7.41 10.625 13.844l3.317 138.093c0.153 6.366-3.783 12.122-9.778 14.279-5.991 2.157-12.697 0.238-16.641-4.76-3.916-4.967-15.297-15.661-32.591-29.437-9.523-7.577-20.513-15.848-32.471-24.262-3.185 2.385-6.423 4.746-9.703 7.080-43.1 30.542-96.414 56.655-149.983 57.941-62.595 1.497-127.678-18.012-172.188-81.414-4.055-5.774-3.469-13.606 1.401-18.713 19.847-20.822 39.284-37.64 65.506-49.204 26.099-11.517 57.703-17.311 101.246-18.355 22.799-0.544 48.67 6.791 74.007 17.399 25.613 10.724 52.001 25.361 76.239 40.695 4.13 2.606 8.199 5.246 12.204 7.893 28.654-23.728 50.898-48.248 62.388-65.188 3.617-5.325 10.258-7.703 16.423-5.893zM659.837 641.766c9.775 7.039 18.845 13.922 26.922 20.359 3.535 2.81 6.927 5.57 10.132 8.261l-1.5-62.616c-10.221 10.969-22.214 22.557-35.544 33.996zM609.7 643.467c-1.045-0.67-2.092-1.337-3.15-2.004-23.364-14.78-48.241-28.515-71.853-38.405-23.887-9.999-45.206-15.518-61.864-15.11-41.44 0.99-68.788 6.485-90.008 15.845-17.733 7.825-32.050 18.716-47.241 33.608 36.843 45.414 87.677 60.299 139.865 59.047 45.070-1.089 92.58-23.452 133.578-52.508 0.225-0.157 0.449-0.316 0.674-0.473z"></path>
<path fill="" d="M248.975 344.085c1.195-10.489 7.887-19.539 17.549-23.765 17.308-7.565 44.712-17.237 71.251-21.397 13.184-2.069 27.895-3.062 41.736-0.79 13.779 2.274 30.386 8.499 41.318 24.172 11.333 16.227 14.157 36.902 3.572 55.193-9.472 16.372-26.446 25.167-42.777 28.801-33.462 7.451-77.467-2.8-120.91-35.102-8.463-6.294-12.943-16.627-11.748-27.103zM313.102 334.886c-13.242 3.892-25.52 8.519-34.722 12.551 11.014 8.193 21.757 14.558 32.022 19.359 61.8 28.913 106.115 1.027 86.157-27.542-13.191-18.894-51.191-13.835-83.458-4.358z"></path>
<path fill="" d="M423.2 621.737c0 8.169-6.631 14.8-14.8 14.8s-14.8-6.631-14.8-14.8c0-8.169 6.631-14.8 14.8-14.8s14.8 6.631 14.8 14.8z"></path>
<path fill="" d="M383.737 345.463c0 8.169-6.631 14.8-14.8 14.8s-14.8-6.631-14.8-14.8c0-8.169 6.631-14.8 14.8-14.8s14.8 6.631 14.8 14.8z"></path>
</svg>
