<svg version="1.1" xmlns="http://www.w3.org/2000/svg" width="1024" height="1024" viewBox="0 0 1024 1024">
<path fill="" d="M828.638 153.904c3.471 1.6 5.912 4.83 6.506 8.615l33.453 215.294c37.276 52.476 58.855 114.173 58.855 180.263 0 193.959-184.523 348.14-408.064 348.14s-408.063-154.182-408.063-348.14c0-82.158 33.327-157.467 88.66-216.749l28.519-178.85c0.593-3.743 3.020-6.946 6.461-8.546s7.454-1.389 10.706 0.573l129.314 77.854c44.924-14.495 93.602-22.421 144.418-22.421 57.702 0 112.649 10.214 162.472 28.674l136.003-84.041c3.257-2.006 7.301-2.257 10.773-0.657zM248.381 182.782l-26.411 165.619c-0.359 2.284-1.411 4.402-3 6.071-53.234 55.934-84.823 126.769-84.823 203.608 0 177.985 170.658 325.315 385.236 325.315s385.237-147.33 385.237-325.315c0-61.845-20.45-119.748-56.145-169.145-1.059-1.462-1.753-3.15-2.029-4.929l-31.232-200.976-126.149 77.948c-3.037 1.872-6.77 2.227-10.1 0.941-48.587-18.716-102.621-29.164-159.593-29.164-50.262 0-98.225 8.123-142.183 22.891-3.178 1.059-6.658 0.683-9.524-1.045l-119.294-71.827z"></path>
<path fill="" d="M49.072 516.582c1.115-6.474 6.898-11.371 12.91-10.947l169.849 12.171c6.005 0.433 9.972 6.030 8.857 12.501s-6.898 11.371-12.909 10.947l-169.849-12.171c-6.004-0.433-9.972-6.029-8.857-12.501z"></path>
<path fill="" d="M991.634 655.391c-1.671 6.277-7.887 10.398-13.885 9.214l-164.221-32.408c-5.998-1.185-9.493-7.227-7.828-13.497s7.887-10.399 13.879-9.214l164.225 32.408c6 1.184 9.488 7.227 7.831 13.497z"></path>
<path fill="" d="M54.443 657.603c-0.513-6.733 3.613-13.451 9.224-15.015l166.568-46.334c5.611-1.562 10.57 2.632 11.088 9.364s-3.614 13.451-9.224 15.013l-166.57 46.334c-5.611 1.562-10.57-2.631-11.088-9.363z"></path>
<path fill="" d="M988.584 514.416c-0.149 6.744-4.945 12.93-10.712 13.829l-164.844 25.686c-5.768 0.899-10.31-3.837-10.155-10.577s4.946-12.93 10.712-13.83l164.847-25.685c5.768-0.899 10.314 3.837 10.152 10.577z"></path>
</svg>
