<svg width="104" height="83" viewBox="0 0 104 83" fill="none" xmlns="http://www.w3.org/2000/svg">
<path fill-rule="evenodd" clip-rule="evenodd" d="M85.4782 0.874067C85.8555 1.04785 86.1208 1.39913 86.1845 1.80967L89.8175 25.1896C93.866 30.8883 96.2091 37.5888 96.2091 44.766C96.2091 65.8291 76.1702 82.5735 51.8936 82.5735C27.617 82.5735 7.57817 65.8291 7.57817 44.766C7.57817 35.8437 11.1977 27.6658 17.2065 21.228L20.304 1.80478C20.3689 1.39787 20.6318 1.04981 21.0054 0.876034C21.379 0.702261 21.8145 0.725498 22.1676 0.938038L36.2103 9.39297C41.0888 7.81866 46.3754 6.95837 51.8936 6.95837C58.1598 6.95837 64.1275 8.0677 69.5382 10.0723L84.308 0.945492C84.6615 0.727097 85.1008 0.70028 85.4782 0.874067ZM22.4629 4.00974L19.5946 21.9955C19.5551 22.2432 19.4413 22.4732 19.2684 22.6549C13.4868 28.7293 10.0574 36.4213 10.0574 44.766C10.0574 64.0947 28.59 80.0944 51.8936 80.0944C75.1973 80.0944 93.7299 64.0947 93.7299 44.766C93.7299 38.05 91.5095 31.7619 87.6332 26.3976C87.5185 26.2389 87.4431 26.0554 87.413 25.8619L84.0217 4.03677L70.3224 12.502C69.9928 12.7056 69.5869 12.7435 69.2253 12.6042C63.9487 10.5721 58.0808 9.43756 51.8936 9.43756C46.4359 9.43756 41.2267 10.3203 36.4524 11.9233C36.1079 12.039 35.7299 11.9976 35.4185 11.8101L22.4629 4.00974Z" fill="black"/>
<path fill-rule="evenodd" clip-rule="evenodd" d="M0.818295 40.2601C0.939807 39.5569 1.56738 39.0247 2.22002 39.0715L20.6649 40.3937C21.3176 40.4405 21.7481 41.0485 21.6266 41.7517C21.5051 42.4549 20.8775 42.987 20.2249 42.9402L1.77998 41.618C1.12734 41.5712 0.696783 40.9633 0.818295 40.2601Z" fill="black"/>
<path fill-rule="evenodd" clip-rule="evenodd" d="M103.179 55.335C102.997 56.0163 102.322 56.4644 101.671 56.336L83.8366 52.8169C83.1857 52.6884 82.8052 52.032 82.9868 51.3507C83.1684 50.6694 83.8434 50.2212 84.4943 50.3497L102.329 53.8688C102.98 53.9972 103.36 54.6536 103.179 55.335Z" fill="black"/>
<path fill-rule="evenodd" clip-rule="evenodd" d="M1.40149 55.5752C1.34568 54.844 1.79421 54.114 2.4033 53.9445L20.4928 48.9128C21.1019 48.7434 21.641 49.1988 21.6968 49.9299C21.7526 50.661 21.304 51.3911 20.695 51.5605L2.60541 56.5922C1.99632 56.7616 1.4573 56.3063 1.40149 55.5752Z" fill="black"/>
<path fill-rule="evenodd" clip-rule="evenodd" d="M102.848 40.0246C102.832 40.7567 102.311 41.4293 101.685 41.5268L83.7833 44.3169C83.1575 44.4144 82.6636 43.8999 82.6801 43.1678C82.6966 42.4357 83.2172 41.7631 83.843 41.6655L101.745 38.8755C102.371 38.778 102.865 39.2924 102.848 40.0246Z" fill="black"/>
</svg>
