<svg version="1.1" xmlns="http://www.w3.org/2000/svg" width="1024" height="1024" viewBox="0 0 1024 1024">
<path fill="" d="M773.49 450.052l-355.16 303.903c14.566 46.275 1.298 98.811-37.912 132.358-52.364 44.806-131.153 38.682-175.962-13.685-20.973-24.511-30.77-54.803-29.926-84.658-29.623-3.775-58.036-18.141-79.009-42.651-44.809-52.367-38.683-131.155 13.684-175.961 40.257-34.445 96.077-38.79 140.121-15.188l350.287-299.736c-18.813-48.098-6.346-104.827 35.112-140.303 52.367-44.809 131.155-38.683 175.965 13.684 20.972 24.51 30.77 54.802 29.925 84.659 29.633 3.772 58.041 18.139 79.012 42.649 44.81 52.368 38.682 131.156-13.685 175.962-37.96 32.485-89.759 38.182-132.46 18.959zM383.683 745.696l386.333-330.572c34.997 24.351 83.301 23.103 117.209-5.913 40.289-34.473 44.997-95.067 10.527-135.357-16.243-18.979-38.277-30.055-61.254-32.875-10.129-1.238-20.441-0.872-30.518 1.135 3.536-9.648 5.492-19.781 5.836-29.974 0.774-23.134-6.77-46.616-23.013-65.595-34.47-40.28-95.067-44.998-135.353-10.525-37.142 31.775-44.047 85.761-17.887 125.565l-384.031 328.605c-35.3-29.261-87.574-29.779-123.605 1.055-40.28 34.473-44.998 95.067-10.525 135.357 16.241 18.977 38.274 30.064 61.25 32.874 10.131 1.239 20.44 0.874 30.519-1.132-3.539 9.646-5.494 19.779-5.837 29.972-0.775 23.133 6.769 46.614 23.010 65.595 34.473 40.289 95.069 44.997 135.355 10.524 35.056-29.998 43.176-79.769 21.981-118.732z"></path>

<path fill="" d="M149.552 179.085c0.38-6.121 4.601-11.325 10.509-12.972 166.873-46.486 307.951 14.39 413.223 114.488 102.22 97.19 171.773 232.154 200.927 345.457l157.48 32.339c5.138 1.059 9.299 4.827 10.857 9.841s0.264 10.472-3.38 14.254l-211.551 219.786c-3.529 3.671-8.733 5.198-13.689 4.029-4.959-1.172-8.925-4.879-10.437-9.736l-45.882-147.556c-136.356-17.825-265.87-92.336-359.941-194.657-96.202-104.624-156.584-239.709-148.108-375.264zM318.866 534.863c92.275 100.353 219.459 171.988 351.314 186.655 5.687 0.635 10.458 4.577 12.159 10.034l41.42 133.198 176.534-183.397-140.759-28.915c-5.469-1.125-9.795-5.306-11.103-10.732-26.593-110.373-94.596-244.783-194.986-340.241-97.854-93.043-225.372-148.262-375.644-110.278-4.27 122.512 51.283 246.018 141.066 343.66z"></path>
<path fill="" d="M394.961 242.538c7.401 2.923 11.027 11.285 8.113 18.677-33.776 85.594-101.979 129.265-133.546 140.817-7.471 2.734-15.742-1.103-18.475-8.574s1.103-15.74 8.574-18.474c25.144-9.202 86.374-47.607 116.652-124.342 2.922-7.4 11.284-11.027 18.674-8.112z"></path>
<path fill="" d="M317.679 243.694c8.137 7.68 8.505 20.498 0.833 28.633s-20.497 8.507-28.632 0.835c-8.136-7.68-8.507-20.498-0.835-28.633s20.497-8.507 28.634-0.835z"></path>
</svg>
