<svg width="30" height="30" viewBox="0 0 30 30" fill="none" xmlns="http://www.w3.org/2000/svg">
<rect width="30" height="30" fill="white"/>
<path fill-rule="evenodd" clip-rule="evenodd" d="M22.2263 13.8034C23.3383 14.304 24.6871 14.1556 25.6757 13.3096C27.0395 12.1427 27.1991 10.0911 26.0321 8.72728C25.4859 8.0889 24.746 7.71487 23.9744 7.61654C23.9966 6.83908 23.7414 6.05029 23.1952 5.41191C22.0282 4.04811 19.9766 3.88856 18.6128 5.05553C17.5332 5.97933 17.2085 7.45662 17.6985 8.70917L8.57643 16.5148C7.42951 15.9002 5.9758 16.0132 4.92741 16.9103C3.56362 18.0772 3.40407 20.1288 4.57104 21.4926C5.11728 22.131 5.85712 22.505 6.62864 22.6034C6.6065 23.3808 6.86164 24.1696 7.40789 24.808C8.57486 26.1718 10.6265 26.3313 11.9902 25.1644C13.0112 24.2908 13.3568 22.9225 12.9774 21.7175L22.2263 13.8034ZM12.0751 21.5025L22.1358 12.8938C23.0472 13.528 24.3051 13.4954 25.1881 12.7398C26.2372 11.8421 26.3599 10.264 25.4623 9.21489C25.0394 8.72074 24.4656 8.43212 23.8672 8.35886C23.6035 8.32657 23.3349 8.33612 23.0725 8.38836C23.1646 8.13712 23.2156 7.87329 23.2245 7.60772C23.2446 7.0052 23.0482 6.39367 22.6253 5.89952C21.7277 4.85045 20.1495 4.72771 19.1005 5.62539C18.1333 6.45293 17.9535 7.85878 18.6346 8.8953L8.63385 17.4527C7.7145 16.6906 6.3532 16.6773 5.41503 17.4801C4.36596 18.3778 4.24322 19.9559 5.14089 21.005C5.56372 21.4991 6.13751 21.7878 6.73588 21.861C6.99963 21.8933 7.26815 21.8838 7.53063 21.8316C7.43844 22.0828 7.3875 22.3466 7.37862 22.6122C7.35848 23.2147 7.55491 23.8262 7.97774 24.3204C8.87542 25.3695 10.4536 25.4922 11.5026 24.5945C12.4155 23.8134 12.6269 22.5172 12.0751 21.5025Z" fill="black"/>
<path d="M19.4945 21.2456C12.4204 20.4584 5.92672 13.5783 6.35226 6.77048C14.7245 4.43834 20.5235 12.8359 21.9383 18.7068L26.2708 19.5966L20.7615 25.3201L19.4945 21.2456Z" fill="white"/>
<path fill-rule="evenodd" clip-rule="evenodd" d="M5.97798 6.74709C5.98795 6.58769 6.09777 6.45209 6.25163 6.40924C10.5972 5.19874 14.2712 6.78395 17.0127 9.39073C19.6746 11.9217 21.4859 15.4365 22.2451 18.387L26.3462 19.2292C26.4801 19.2567 26.5884 19.3549 26.6289 19.4854C26.6694 19.6159 26.6357 19.7582 26.5409 19.8566L21.0317 25.5801C20.9398 25.6757 20.8042 25.7155 20.6752 25.685C20.5461 25.6544 20.4428 25.558 20.4034 25.4314L19.2085 21.5887C15.6576 21.1246 12.2849 19.184 9.83498 16.5196C7.32969 13.795 5.75733 10.2771 5.97798 6.74709ZM10.3871 16.012C12.79 18.6253 16.1022 20.4908 19.536 20.8729C19.6841 20.8894 19.8084 20.992 19.8526 21.1343L20.9313 24.603L25.5285 19.827L21.8629 19.0741C21.7205 19.0449 21.6078 18.936 21.5737 18.7946C20.8811 15.9203 19.1103 12.4201 16.4959 9.93425C13.9476 7.51118 10.6268 6.07322 6.71345 7.0625C6.60217 10.2528 8.04901 13.4692 10.3871 16.012Z" fill="black"/>
<path fill-rule="evenodd" clip-rule="evenodd" d="M12.3687 8.39937C12.5614 8.47539 12.6559 8.69319 12.5799 8.88584C11.7003 11.1148 9.92411 12.2522 9.10218 12.5529C8.90768 12.6241 8.69232 12.5241 8.62116 12.3296C8.54999 12.1351 8.64997 11.9198 8.84446 11.8486C9.49929 11.609 11.0937 10.6088 11.8823 8.61053C11.9583 8.41788 12.1761 8.32334 12.3687 8.39937Z" fill="black"/>
<path d="M10.3563 8.42948C10.5682 8.62939 10.5778 8.96321 10.3779 9.17507C10.178 9.38694 9.84421 9.39663 9.63234 9.19672C9.42047 8.99681 9.41078 8.66299 9.61069 8.45113C9.8106 8.23926 10.1444 8.22957 10.3563 8.42948Z" fill="black"/>
</svg>
