<svg width="100" height="62" viewBox="0 0 100 62" fill="none" xmlns="http://www.w3.org/2000/svg">
<ellipse cx="32.9412" cy="10.5882" rx="3.52941" ry="3.52941" fill="black"/>
<ellipse cx="42.3529" cy="3.52941" rx="3.52941" ry="3.52941" fill="black"/>
<ellipse cx="51.1765" cy="10.5882" rx="3.52941" ry="3.52941" fill="black"/>
<ellipse cx="69.4118" cy="10.5882" rx="3.52941" ry="3.52941" fill="black"/>
<ellipse cx="60.5882" cy="3.52941" rx="3.52941" ry="3.52941" fill="black"/>
<path fill-rule="evenodd" clip-rule="evenodd" d="M38.8235 39.4118C43.143 39.4118 46.9187 37.1421 48.9647 33.7593C50.5079 35.0828 52.5135 35.8824 54.7059 35.8824C57.4897 35.8824 59.9725 34.5931 61.5896 32.5792C63.4166 36.6038 67.5484 39.4118 72.3529 39.4118C78.8504 39.4118 84.1176 34.2762 84.1176 27.9412C84.1176 21.6061 78.8504 16.4706 72.3529 16.4706C67.9691 16.4706 64.1453 18.8084 62.1214 22.2751C60.55 19.8442 57.8158 18.2353 54.7059 18.2353C52.1498 18.2353 49.8476 19.3221 48.2362 21.0589C46.0899 18.2728 42.6725 16.4706 38.8235 16.4706C35.5428 16.4706 32.5757 17.7799 30.4419 19.8918C28.9931 18.8493 27.2153 18.2353 25.2941 18.2353C20.421 18.2353 16.4706 22.1857 16.4706 27.0588C16.4706 31.9319 20.421 35.8824 25.2941 35.8824C26.7901 35.8824 28.1992 35.51 29.4337 34.853C31.5814 37.6223 34.9881 39.4118 38.8235 39.4118Z" fill="black"/>
<path d="M4.55048 51.3732L13.2384 34.9026C14.2565 32.9726 16.2593 31.7647 18.4413 31.7647H81.2432C83.4046 31.7647 85.3919 32.9501 86.419 34.8519L95.3138 51.3225C97.4303 55.2417 94.5922 60 90.138 60H9.75338C5.32449 60 2.48416 55.2905 4.55048 51.3732Z" fill="white"/>
<path fill-rule="evenodd" clip-rule="evenodd" d="M18.4413 32.9412C16.6957 32.9412 15.0934 33.9075 14.279 35.4515L5.59105 51.9221C3.938 55.056 6.21026 58.8235 9.75337 58.8235H90.138C93.7013 58.8235 95.9718 55.0169 94.2786 51.8815L85.3838 35.4109C84.5622 33.8895 82.9723 32.9412 81.2432 32.9412H18.4413ZM12.1978 34.3537C13.4195 32.0377 15.8228 30.5882 18.4413 30.5882H81.2432C83.8369 30.5882 86.2217 32.0107 87.4542 34.2929L96.349 50.7635C98.8888 55.4665 95.483 61.1765 90.138 61.1765H9.75337C4.4387 61.1765 1.03031 55.5251 3.50989 50.8243L12.1978 34.3537Z" fill="black"/>
</svg>
