<svg width="30" height="36" viewBox="0 0 30 36" fill="none" xmlns="http://www.w3.org/2000/svg">
<path id="01" d="M7.08 28.336C10.68 28.336 13.08 25.168 13.08 19.048C13.08 12.928 10.68 9.904 7.08 9.904C3.456 9.904 1.056 12.904 1.056 19.048C1.056 25.168 3.456 28.336 7.08 28.336ZM7.08 25.576C5.544 25.576 4.392 24.04 4.392 19.048C4.392 14.08 5.544 12.64 7.08 12.64C8.592 12.64 9.744 14.08 9.744 19.048C9.744 24.04 8.592 25.576 7.08 25.576ZM17.5408 28H28.2208V25.144H24.8848V10.24H22.2688C21.1408 10.936 19.9168 11.392 18.1408 11.728V13.912H21.3568V25.144H17.5408V28Z" fill="black"/>
</svg>
