<svg width="28" height="20" viewBox="0 0 28 20" fill="none" xmlns="http://www.w3.org/2000/svg">
<path d="M6.08 19.336C9.68 19.336 12.08 16.168 12.08 10.048C12.08 3.928 9.68 0.904 6.08 0.904C2.456 0.904 0.0560001 3.904 0.0560001 10.048C0.0560001 16.168 2.456 19.336 6.08 19.336ZM6.08 16.576C4.544 16.576 3.392 15.04 3.392 10.048C3.392 5.08 4.544 3.64 6.08 3.64C7.592 3.64 8.744 5.08 8.744 10.048C8.744 15.04 7.592 16.576 6.08 16.576ZM15.6048 19H27.5088V16.024H23.6448C22.8288 16.024 21.6528 16.12 20.7648 16.216C24.0048 13.048 26.6688 9.592 26.6688 6.376C26.6688 3.064 24.4368 0.904 21.0768 0.904C18.6528 0.904 17.0688 1.864 15.4368 3.592L17.3568 5.512C18.2448 4.528 19.3248 3.688 20.6208 3.688C22.3008 3.688 23.2848 4.768 23.2848 6.568C23.2848 9.304 20.4288 12.64 15.6048 16.96V19Z" fill="black"/>
</svg>
