<svg width="28" height="20" viewBox="0 0 28 20" fill="none" xmlns="http://www.w3.org/2000/svg">
<path d="M6.08 19.336C9.68 19.336 12.08 16.168 12.08 10.048C12.08 3.928 9.68 0.904 6.08 0.904C2.456 0.904 0.0560001 3.904 0.0560001 10.048C0.0560001 16.168 2.456 19.336 6.08 19.336ZM6.08 16.576C4.544 16.576 3.392 15.04 3.392 10.048C3.392 5.08 4.544 3.64 6.08 3.64C7.592 3.64 8.744 5.08 8.744 10.048C8.744 15.04 7.592 16.576 6.08 16.576ZM21.1488 19.336C24.5328 19.336 27.3888 17.44 27.3888 14.176C27.3888 11.848 25.8528 10.36 23.8368 9.808V9.688C25.7328 8.944 26.8128 7.552 26.8128 5.632C26.8128 2.584 24.4848 0.904 21.0528 0.904C18.9648 0.904 17.2608 1.744 15.7248 3.088L17.5248 5.248C18.5808 4.288 19.6128 3.688 20.8848 3.664C22.3968 3.688 23.2608 4.504 23.2608 5.896C23.2608 7.48 22.2048 8.608 18.9408 8.608V11.152C22.8048 11.152 23.8368 12.232 23.8368 13.984C23.8368 15.568 22.6128 16.456 20.8128 16.456C19.2048 16.456 17.9088 15.664 16.8528 14.632L15.1968 16.864C16.4448 18.28 18.3408 19.336 21.1488 19.336Z" fill="black"/>
</svg>
