<svg width="29" height="20" viewBox="0 0 29 20" fill="none" xmlns="http://www.w3.org/2000/svg">
<path d="M6.08 19.336C9.68 19.336 12.08 16.168 12.08 10.048C12.08 3.928 9.68 0.904 6.08 0.904C2.456 0.904 0.0560001 3.904 0.0560001 10.048C0.0560001 16.168 2.456 19.336 6.08 19.336ZM6.08 16.576C4.544 16.576 3.392 15.04 3.392 10.048C3.392 5.08 4.544 3.64 6.08 3.64C7.592 3.64 8.744 5.08 8.744 10.048C8.744 15.04 7.592 16.576 6.08 16.576ZM18.5088 11.704L21.2688 7.288C21.7728 6.328 22.2528 5.344 22.6848 4.408H22.7808C22.7328 5.44 22.6368 7.048 22.6368 8.08V11.704H18.5088ZM28.0368 11.704H25.9248V1.24H21.7008L15.0768 11.992V14.392H22.6368V19H25.9248V14.392H28.0368V11.704Z" fill="black"/>
</svg>
