<svg width="78" height="62" viewBox="0 0 78 62" fill="none" xmlns="http://www.w3.org/2000/svg">
<path fill-rule="evenodd" clip-rule="evenodd" d="M44.7785 5.84477C44.7785 7.36027 44.2083 8.74106 43.2731 9.77957L43.294 9.81734L52.2591 26.1418L66.8146 19.5975C66.5753 18.9559 66.4444 18.2606 66.4444 17.5343C66.4444 14.3063 69.0312 11.6895 72.2222 11.6895C75.4132 11.6895 78 14.3063 78 17.5343C78 19.9648 76.5334 22.0488 74.4467 22.9301C74.548 23.5658 74.5249 24.218 74.3757 24.8493L66.6169 58.203C66.4692 58.8484 66.1931 59.4565 65.8054 59.9904C65.4177 60.5243 64.9265 60.9726 64.3618 61.3081C63.7942 61.646 63.1653 61.8652 62.5123 61.9526C61.8594 62.0399 61.1957 61.9937 60.5608 61.8166C46.4696 57.8843 31.5887 57.8858 17.4983 61.8208C16.863 61.9981 16.1991 62.0445 15.5458 61.9571C14.8925 61.8698 14.2633 61.6505 13.6954 61.3123C13.1305 60.9765 12.6391 60.5278 12.2514 59.9935C11.8637 59.4592 11.5877 58.8506 11.4404 58.2048L3.69492 24.8466C3.55072 24.2255 3.52773 23.5847 3.62429 22.9596C1.49988 22.0958 0 19.9922 0 17.5343C0 14.3063 2.58682 11.6895 5.77782 11.6895C8.96883 11.6895 11.5556 14.3063 11.5556 17.5343C11.5556 18.2499 11.4285 18.9355 11.1958 19.5692L25.8139 26.1415L34.773 9.82874C33.8112 8.78484 33.2228 7.38432 33.2228 5.84477C33.2228 2.61679 35.8096 0 39.0006 0C42.1916 0 44.7785 2.61679 44.7785 5.84477Z" fill="#FFEC3D"/>
</svg>
