<svg width="45" height="45" viewBox="0 0 45 45" fill="none" xmlns="http://www.w3.org/2000/svg">
<circle cx="22.5" cy="22.5" r="22.5" fill="#FEFEFE"/>
<path d="M15.7856 31.6633C15.6038 31.6627 15.4252 31.6153 15.267 31.5257C15.1035 31.4338 14.9674 31.3001 14.8725 31.1383C14.7777 30.9765 14.7275 30.7924 14.7272 30.6048V15.0771C14.7129 14.4423 14.9493 13.8275 15.3852 13.3659C15.821 12.9042 16.4213 12.633 17.0558 12.6108H27.2171C27.8516 12.633 28.4519 12.9042 28.8877 13.3659C29.3236 13.8275 29.56 14.4423 29.5457 15.0771V30.6048C29.5446 30.7895 29.4952 30.9707 29.4023 31.1304C29.3095 31.2901 29.1765 31.4227 29.0165 31.5151C28.8556 31.608 28.6731 31.6569 28.4873 31.6569C28.3015 31.6569 28.1189 31.608 27.958 31.5151L21.9565 28.1174L16.3149 31.5045C16.1556 31.6033 15.973 31.6581 15.7856 31.6633V31.6633Z" stroke="#434343" stroke-width="2"/>
</svg>
